<svg xmlns="http://www.w3.org/2000/svg" xmlns:xlink="http://www.w3.org/1999/xlink" width="500" zoomAndPan="magnify" viewBox="0 0 375 187.499995" height="250" preserveAspectRatio="xMidYMid meet" version="1.0"><defs><g/><clipPath id="a144465865"><path d="M 0.5 59.613281 L 100.074219 59.613281 L 100.074219 127.789062 L 0.5 127.789062 Z M 0.5 59.613281 " clip-rule="nonzero"/></clipPath><clipPath id="0b8dd4248f"><path d="M 341 81 L 374.5 81 L 374.5 120 L 341 120 Z M 341 81 " clip-rule="nonzero"/></clipPath></defs><g clip-path="url(#a144465865)"><path fill="#ffffff" d="M 100.398438 127.164062 L 46.054688 127.164062 L 73.222656 80.101562 Z M 65.96875 87.535156 L 49.933594 59.78125 L 32.863281 89.351562 L 27.671875 80.355469 L 0.5 127.417969 L 42.9375 127.417969 L 63.960938 91.003906 Z M 65.96875 87.535156 " fill-opacity="1" fill-rule="nonzero"/></g><g fill="#ffffff" fill-opacity="1"><g transform="translate(98.051577, 118.839343)"><g><path d="M 2.9375 -25.140625 C 2.9375 -28.171875 3.457031 -31.140625 4.5 -34.046875 C 5.550781 -36.960938 7.078125 -39.617188 9.078125 -42.015625 C 11.078125 -44.410156 13.546875 -46.316406 16.484375 -47.734375 C 19.421875 -49.160156 22.75 -49.875 26.46875 -49.875 C 30.894531 -49.875 34.675781 -48.859375 37.8125 -46.828125 C 40.957031 -44.804688 43.273438 -42.210938 44.765625 -39.046875 L 40.921875 -36.671875 C 39.859375 -38.859375 38.507812 -40.59375 36.875 -41.875 C 35.25 -43.15625 33.515625 -44.070312 31.671875 -44.625 C 29.835938 -45.1875 28.007812 -45.46875 26.1875 -45.46875 C 23.207031 -45.46875 20.578125 -44.875 18.296875 -43.6875 C 16.015625 -42.5 14.09375 -40.914062 12.53125 -38.9375 C 10.976562 -36.957031 9.804688 -34.742188 9.015625 -32.296875 C 8.222656 -29.859375 7.828125 -27.378906 7.828125 -24.859375 C 7.828125 -22.117188 8.289062 -19.488281 9.21875 -16.96875 C 10.144531 -14.457031 11.445312 -12.234375 13.125 -10.296875 C 14.800781 -8.367188 16.769531 -6.832031 19.03125 -5.6875 C 21.289062 -4.550781 23.75 -3.984375 26.40625 -3.984375 C 28.257812 -3.984375 30.164062 -4.304688 32.125 -4.953125 C 34.082031 -5.609375 35.910156 -6.609375 37.609375 -7.953125 C 39.304688 -9.304688 40.671875 -11.054688 41.703125 -13.203125 L 45.75 -11.109375 C 44.726562 -8.640625 43.144531 -6.539062 41 -4.8125 C 38.851562 -3.09375 36.460938 -1.789062 33.828125 -0.90625 C 31.203125 -0.0195312 28.632812 0.421875 26.125 0.421875 C 22.71875 0.421875 19.59375 -0.3125 16.75 -1.78125 C 13.914062 -3.25 11.460938 -5.203125 9.390625 -7.640625 C 7.316406 -10.085938 5.722656 -12.835938 4.609375 -15.890625 C 3.492188 -18.941406 2.9375 -22.023438 2.9375 -25.140625 Z M 2.9375 -25.140625 "/></g></g></g><g fill="#ffffff" fill-opacity="1"><g transform="translate(145.958359, 118.839343)"><g><path d="M 20.75 0.703125 C 18.132812 0.703125 15.722656 0.203125 13.515625 -0.796875 C 11.304688 -1.804688 9.394531 -3.179688 7.78125 -4.921875 C 6.175781 -6.671875 4.929688 -8.671875 4.046875 -10.921875 C 3.160156 -13.179688 2.71875 -15.570312 2.71875 -18.09375 C 2.71875 -20.695312 3.160156 -23.128906 4.046875 -25.390625 C 4.929688 -27.648438 6.1875 -29.648438 7.8125 -31.390625 C 9.445312 -33.140625 11.367188 -34.515625 13.578125 -35.515625 C 15.796875 -36.515625 18.207031 -37.015625 20.8125 -37.015625 C 23.414062 -37.015625 25.8125 -36.515625 28 -35.515625 C 30.195312 -34.515625 32.109375 -33.140625 33.734375 -31.390625 C 35.359375 -29.648438 36.613281 -27.648438 37.5 -25.390625 C 38.382812 -23.128906 38.828125 -20.695312 38.828125 -18.09375 C 38.828125 -15.570312 38.382812 -13.179688 37.5 -10.921875 C 36.613281 -8.671875 35.367188 -6.671875 33.765625 -4.921875 C 32.160156 -3.179688 30.25 -1.804688 28.03125 -0.796875 C 25.820312 0.203125 23.394531 0.703125 20.75 0.703125 Z M 7.546875 -18.015625 C 7.546875 -15.316406 8.140625 -12.859375 9.328125 -10.640625 C 10.515625 -8.429688 12.109375 -6.6875 14.109375 -5.40625 C 16.109375 -4.132812 18.320312 -3.5 20.75 -3.5 C 23.164062 -3.5 25.375 -4.148438 27.375 -5.453125 C 29.375 -6.753906 30.976562 -8.53125 32.1875 -10.78125 C 33.40625 -13.039062 34.015625 -15.5 34.015625 -18.15625 C 34.015625 -20.851562 33.40625 -23.320312 32.1875 -25.5625 C 30.976562 -27.800781 29.375 -29.570312 27.375 -30.875 C 25.375 -32.175781 23.164062 -32.828125 20.75 -32.828125 C 18.320312 -32.828125 16.117188 -32.148438 14.140625 -30.796875 C 12.160156 -29.453125 10.566406 -27.671875 9.359375 -25.453125 C 8.148438 -23.242188 7.546875 -20.765625 7.546875 -18.015625 Z M 7.546875 -18.015625 "/></g></g></g><g fill="#ffffff" fill-opacity="1"><g transform="translate(187.510157, 118.839343)"><g><path d="M 2.796875 -18.09375 C 2.796875 -21.539062 3.503906 -24.691406 4.921875 -27.546875 C 6.335938 -30.410156 8.300781 -32.703125 10.8125 -34.421875 C 13.332031 -36.148438 16.203125 -37.015625 19.421875 -37.015625 C 22.441406 -37.015625 25.148438 -36.210938 27.546875 -34.609375 C 29.953125 -33.003906 31.828125 -31.0625 33.171875 -28.78125 L 33.171875 -50.984375 L 37.921875 -50.984375 L 37.921875 -5.734375 C 37.921875 -5.078125 38.0625 -4.597656 38.34375 -4.296875 C 38.625 -3.992188 39.039062 -3.816406 39.59375 -3.765625 L 39.59375 0 C 38.664062 0.132812 37.945312 0.179688 37.4375 0.140625 C 36.457031 0.0859375 35.59375 -0.304688 34.84375 -1.046875 C 34.101562 -1.796875 33.734375 -2.613281 33.734375 -3.5 L 33.734375 -7.046875 C 32.285156 -4.679688 30.328125 -2.796875 27.859375 -1.390625 C 25.398438 0.00390625 22.84375 0.703125 20.1875 0.703125 C 17.664062 0.703125 15.347656 0.191406 13.234375 -0.828125 C 11.117188 -1.859375 9.28125 -3.257812 7.71875 -5.03125 C 6.15625 -6.800781 4.941406 -8.8125 4.078125 -11.0625 C 3.222656 -13.320312 2.796875 -15.664062 2.796875 -18.09375 Z M 33.171875 -12.5 L 33.171875 -23.75 C 32.566406 -25.425781 31.585938 -26.945312 30.234375 -28.3125 C 28.890625 -29.6875 27.367188 -30.78125 25.671875 -31.59375 C 23.972656 -32.414062 22.285156 -32.828125 20.609375 -32.828125 C 18.648438 -32.828125 16.878906 -32.414062 15.296875 -31.59375 C 13.710938 -30.78125 12.347656 -29.675781 11.203125 -28.28125 C 10.066406 -26.882812 9.195312 -25.300781 8.59375 -23.53125 C 7.988281 -21.769531 7.6875 -19.957031 7.6875 -18.09375 C 7.6875 -16.132812 8.019531 -14.269531 8.6875 -12.5 C 9.363281 -10.726562 10.332031 -9.15625 11.59375 -7.78125 C 12.851562 -6.414062 14.296875 -5.359375 15.921875 -4.609375 C 17.554688 -3.867188 19.328125 -3.5 21.234375 -3.5 C 22.441406 -3.5 23.695312 -3.726562 25 -4.1875 C 26.300781 -4.65625 27.546875 -5.296875 28.734375 -6.109375 C 29.921875 -6.921875 30.910156 -7.882812 31.703125 -9 C 32.492188 -10.125 32.984375 -11.289062 33.171875 -12.5 Z M 33.171875 -12.5 "/></g></g></g><g fill="#ffffff" fill-opacity="1"><g transform="translate(230.947501, 118.839343)"><g><path d="M 20.953125 0.703125 C 18.347656 0.703125 15.925781 0.203125 13.6875 -0.796875 C 11.457031 -1.804688 9.523438 -3.179688 7.890625 -4.921875 C 6.265625 -6.671875 4.992188 -8.6875 4.078125 -10.96875 C 3.171875 -13.25 2.71875 -15.691406 2.71875 -18.296875 C 2.71875 -21.691406 3.5 -24.8125 5.0625 -27.65625 C 6.625 -30.5 8.773438 -32.769531 11.515625 -34.46875 C 14.265625 -36.164062 17.390625 -37.015625 20.890625 -37.015625 C 24.472656 -37.015625 27.601562 -36.148438 30.28125 -34.421875 C 32.957031 -32.703125 35.0625 -30.429688 36.59375 -27.609375 C 38.132812 -24.796875 38.90625 -21.71875 38.90625 -18.375 C 38.90625 -18 38.90625 -17.632812 38.90625 -17.28125 C 38.90625 -16.9375 38.878906 -16.671875 38.828125 -16.484375 L 7.6875 -16.484375 C 7.914062 -13.878906 8.644531 -11.5625 9.875 -9.53125 C 11.113281 -7.507812 12.722656 -5.90625 14.703125 -4.71875 C 16.679688 -3.53125 18.832031 -2.9375 21.15625 -2.9375 C 23.53125 -2.9375 25.773438 -3.539062 27.890625 -4.75 C 30.015625 -5.957031 31.5 -7.539062 32.34375 -9.5 L 36.453125 -8.375 C 35.710938 -6.65625 34.570312 -5.097656 33.03125 -3.703125 C 31.5 -2.304688 29.695312 -1.222656 27.625 -0.453125 C 25.550781 0.316406 23.328125 0.703125 20.953125 0.703125 Z M 7.546875 -19.90625 L 34.4375 -19.90625 C 34.25 -22.5625 33.535156 -24.890625 32.296875 -26.890625 C 31.066406 -28.890625 29.460938 -30.457031 27.484375 -31.59375 C 25.503906 -32.738281 23.328125 -33.3125 20.953125 -33.3125 C 18.578125 -33.3125 16.410156 -32.738281 14.453125 -31.59375 C 12.503906 -30.457031 10.910156 -28.875 9.671875 -26.84375 C 8.441406 -24.820312 7.734375 -22.507812 7.546875 -19.90625 Z M 7.546875 -19.90625 "/></g></g></g><g fill="#ffffff" fill-opacity="1"><g transform="translate(271.940628, 118.839343)"><g><path d="M 17.1875 0.703125 C 14.207031 0.703125 11.4375 0.210938 8.875 -0.765625 C 6.3125 -1.742188 4.097656 -3.234375 2.234375 -5.234375 L 4.1875 -8.59375 C 6.238281 -6.6875 8.300781 -5.300781 10.375 -4.4375 C 12.445312 -3.570312 14.644531 -3.140625 16.96875 -3.140625 C 19.8125 -3.140625 22.117188 -3.707031 23.890625 -4.84375 C 25.660156 -5.988281 26.546875 -7.632812 26.546875 -9.78125 C 26.546875 -11.21875 26.113281 -12.320312 25.25 -13.09375 C 24.382812 -13.863281 23.148438 -14.492188 21.546875 -14.984375 C 19.941406 -15.472656 18.019531 -15.992188 15.78125 -16.546875 C 13.269531 -17.242188 11.164062 -17.976562 9.46875 -18.75 C 7.769531 -19.519531 6.488281 -20.5 5.625 -21.6875 C 4.757812 -22.875 4.328125 -24.421875 4.328125 -26.328125 C 4.328125 -28.703125 4.921875 -30.671875 6.109375 -32.234375 C 7.296875 -33.796875 8.925781 -34.984375 11 -35.796875 C 13.070312 -36.609375 15.390625 -37.015625 17.953125 -37.015625 C 20.742188 -37.015625 23.207031 -36.570312 25.34375 -35.6875 C 27.488281 -34.800781 29.238281 -33.566406 30.59375 -31.984375 L 28.28125 -28.78125 C 26.976562 -30.269531 25.429688 -31.375 23.640625 -32.09375 C 21.847656 -32.8125 19.859375 -33.171875 17.671875 -33.171875 C 16.179688 -33.171875 14.757812 -32.972656 13.40625 -32.578125 C 12.0625 -32.179688 10.957031 -31.53125 10.09375 -30.625 C 9.226562 -29.71875 8.796875 -28.472656 8.796875 -26.890625 C 8.796875 -25.585938 9.117188 -24.570312 9.765625 -23.84375 C 10.421875 -23.125 11.398438 -22.519531 12.703125 -22.03125 C 14.015625 -21.539062 15.625 -21.019531 17.53125 -20.46875 C 20.28125 -19.71875 22.675781 -18.957031 24.71875 -18.1875 C 26.769531 -17.425781 28.351562 -16.4375 29.46875 -15.21875 C 30.59375 -14.007812 31.15625 -12.3125 31.15625 -10.125 C 31.15625 -6.726562 29.875 -4.070312 27.3125 -2.15625 C 24.75 -0.25 21.375 0.703125 17.1875 0.703125 Z M 17.1875 0.703125 "/></g></g></g><g fill="#ffffff" fill-opacity="1"><g transform="translate(305.670908, 118.839343)"><g><path d="M 17.1875 0.703125 C 14.207031 0.703125 11.4375 0.210938 8.875 -0.765625 C 6.3125 -1.742188 4.097656 -3.234375 2.234375 -5.234375 L 4.1875 -8.59375 C 6.238281 -6.6875 8.300781 -5.300781 10.375 -4.4375 C 12.445312 -3.570312 14.644531 -3.140625 16.96875 -3.140625 C 19.8125 -3.140625 22.117188 -3.707031 23.890625 -4.84375 C 25.660156 -5.988281 26.546875 -7.632812 26.546875 -9.78125 C 26.546875 -11.21875 26.113281 -12.320312 25.25 -13.09375 C 24.382812 -13.863281 23.148438 -14.492188 21.546875 -14.984375 C 19.941406 -15.472656 18.019531 -15.992188 15.78125 -16.546875 C 13.269531 -17.242188 11.164062 -17.976562 9.46875 -18.75 C 7.769531 -19.519531 6.488281 -20.5 5.625 -21.6875 C 4.757812 -22.875 4.328125 -24.421875 4.328125 -26.328125 C 4.328125 -28.703125 4.921875 -30.671875 6.109375 -32.234375 C 7.296875 -33.796875 8.925781 -34.984375 11 -35.796875 C 13.070312 -36.609375 15.390625 -37.015625 17.953125 -37.015625 C 20.742188 -37.015625 23.207031 -36.570312 25.34375 -35.6875 C 27.488281 -34.800781 29.238281 -33.566406 30.59375 -31.984375 L 28.28125 -28.78125 C 26.976562 -30.269531 25.429688 -31.375 23.640625 -32.09375 C 21.847656 -32.8125 19.859375 -33.171875 17.671875 -33.171875 C 16.179688 -33.171875 14.757812 -32.972656 13.40625 -32.578125 C 12.0625 -32.179688 10.957031 -31.53125 10.09375 -30.625 C 9.226562 -29.71875 8.796875 -28.472656 8.796875 -26.890625 C 8.796875 -25.585938 9.117188 -24.570312 9.765625 -23.84375 C 10.421875 -23.125 11.398438 -22.519531 12.703125 -22.03125 C 14.015625 -21.539062 15.625 -21.019531 17.53125 -20.46875 C 20.28125 -19.71875 22.675781 -18.957031 24.71875 -18.1875 C 26.769531 -17.425781 28.351562 -16.4375 29.46875 -15.21875 C 30.59375 -14.007812 31.15625 -12.3125 31.15625 -10.125 C 31.15625 -6.726562 29.875 -4.070312 27.3125 -2.15625 C 24.75 -0.25 21.375 0.703125 17.1875 0.703125 Z M 17.1875 0.703125 "/></g></g></g><g clip-path="url(#0b8dd4248f)"><g fill="#ffffff" fill-opacity="1"><g transform="translate(339.401177, 118.839343)"><g><path d="M 2.3125 -10.484375 C 2.3125 -12.765625 2.960938 -14.726562 4.265625 -16.375 C 5.566406 -18.03125 7.367188 -19.3125 9.671875 -20.21875 C 11.972656 -21.125 14.640625 -21.578125 17.671875 -21.578125 C 19.441406 -21.578125 21.28125 -21.4375 23.1875 -21.15625 C 25.09375 -20.882812 26.789062 -20.46875 28.28125 -19.90625 L 28.28125 -22.984375 C 28.28125 -26.054688 27.375 -28.5 25.5625 -30.3125 C 23.75 -32.125 21.234375 -33.03125 18.015625 -33.03125 C 16.066406 -33.03125 14.144531 -32.671875 12.25 -31.953125 C 10.363281 -31.234375 8.398438 -30.175781 6.359375 -28.78125 L 4.546875 -32.125 C 6.921875 -33.757812 9.25 -34.984375 11.53125 -35.796875 C 13.8125 -36.609375 16.140625 -37.015625 18.515625 -37.015625 C 22.984375 -37.015625 26.519531 -35.734375 29.125 -33.171875 C 31.726562 -30.609375 33.03125 -27.070312 33.03125 -22.5625 L 33.03125 -5.734375 C 33.03125 -5.078125 33.171875 -4.597656 33.453125 -4.296875 C 33.734375 -3.992188 34.175781 -3.816406 34.78125 -3.765625 L 34.78125 0 C 34.269531 0.0390625 33.828125 0.0820312 33.453125 0.125 C 33.078125 0.175781 32.796875 0.179688 32.609375 0.140625 C 31.453125 0.0859375 30.570312 -0.285156 29.96875 -0.984375 C 29.363281 -1.679688 29.035156 -2.425781 28.984375 -3.21875 L 28.921875 -5.859375 C 27.285156 -3.765625 25.160156 -2.144531 22.546875 -1 C 19.941406 0.132812 17.289062 0.703125 14.59375 0.703125 C 12.269531 0.703125 10.164062 0.203125 8.28125 -0.796875 C 6.394531 -1.804688 4.925781 -3.160156 3.875 -4.859375 C 2.832031 -6.554688 2.3125 -8.429688 2.3125 -10.484375 Z M 26.6875 -7.6875 C 27.195312 -8.332031 27.585938 -8.957031 27.859375 -9.5625 C 28.140625 -10.175781 28.28125 -10.710938 28.28125 -11.171875 L 28.28125 -16.484375 C 26.695312 -17.085938 25.054688 -17.550781 23.359375 -17.875 C 21.660156 -18.207031 19.953125 -18.375 18.234375 -18.375 C 14.828125 -18.375 12.078125 -17.695312 9.984375 -16.34375 C 7.890625 -14.988281 6.84375 -13.148438 6.84375 -10.828125 C 6.84375 -9.472656 7.191406 -8.203125 7.890625 -7.015625 C 8.585938 -5.828125 9.609375 -4.847656 10.953125 -4.078125 C 12.304688 -3.316406 13.894531 -2.9375 15.71875 -2.9375 C 18 -2.9375 20.128906 -3.378906 22.109375 -4.265625 C 24.085938 -5.148438 25.613281 -6.289062 26.6875 -7.6875 Z M 26.6875 -7.6875 "/></g></g></g></g></svg>