<svg xmlns="http://www.w3.org/2000/svg" xmlns:xlink="http://www.w3.org/1999/xlink" width="500" zoomAndPan="magnify" viewBox="0 0 375 187.499995" height="250" preserveAspectRatio="xMidYMid meet" version="1.0"><defs><g/><clipPath id="c40934bcd5"><path d="M 0.5 59.476562 L 100.425781 59.476562 L 100.425781 127.894531 L 0.5 127.894531 Z M 0.5 59.476562 " clip-rule="nonzero"/></clipPath></defs><g clip-path="url(#c40934bcd5)"><path fill="#000000" d="M 100.425781 127.640625 L 46.066406 127.640625 L 73.246094 80.148438 Z M 65.984375 87.652344 L 49.949219 59.644531 L 32.871094 89.484375 L 27.679688 80.40625 L 0.5 127.902344 L 42.953125 127.902344 L 63.980469 91.152344 Z M 65.984375 87.652344 " fill-opacity="1" fill-rule="nonzero"/></g><g fill="#000000" fill-opacity="1"><g transform="translate(100.380878, 117.546299)"><g><path d="M 2.90625 -24.875 C 2.90625 -27.863281 3.421875 -30.796875 4.453125 -33.671875 C 5.492188 -36.554688 7.003906 -39.1875 8.984375 -41.5625 C 10.960938 -43.9375 13.398438 -45.820312 16.296875 -47.21875 C 19.203125 -48.625 22.5 -49.328125 26.1875 -49.328125 C 30.5625 -49.328125 34.300781 -48.328125 37.40625 -46.328125 C 40.519531 -44.328125 42.816406 -41.757812 44.296875 -38.625 L 40.484375 -36.28125 C 39.429688 -38.4375 38.097656 -40.148438 36.484375 -41.421875 C 34.867188 -42.691406 33.148438 -43.601562 31.328125 -44.15625 C 29.515625 -44.707031 27.707031 -44.984375 25.90625 -44.984375 C 22.957031 -44.984375 20.351562 -44.394531 18.09375 -43.21875 C 15.84375 -42.039062 13.945312 -40.472656 12.40625 -38.515625 C 10.863281 -36.554688 9.695312 -34.367188 8.90625 -31.953125 C 8.125 -29.535156 7.734375 -27.082031 7.734375 -24.59375 C 7.734375 -21.875 8.191406 -19.269531 9.109375 -16.78125 C 10.035156 -14.300781 11.328125 -12.101562 12.984375 -10.1875 C 14.648438 -8.28125 16.597656 -6.757812 18.828125 -5.625 C 21.054688 -4.5 23.488281 -3.9375 26.125 -3.9375 C 27.957031 -3.9375 29.84375 -4.257812 31.78125 -4.90625 C 33.71875 -5.550781 35.523438 -6.539062 37.203125 -7.875 C 38.890625 -9.207031 40.238281 -10.9375 41.25 -13.0625 L 45.25 -10.984375 C 44.238281 -8.546875 42.671875 -6.472656 40.546875 -4.765625 C 38.429688 -3.066406 36.070312 -1.773438 33.46875 -0.890625 C 30.875 -0.015625 28.332031 0.421875 25.84375 0.421875 C 22.476562 0.421875 19.390625 -0.300781 16.578125 -1.75 C 13.773438 -3.207031 11.347656 -5.144531 9.296875 -7.5625 C 7.242188 -9.976562 5.664062 -12.695312 4.5625 -15.71875 C 3.457031 -18.738281 2.90625 -21.789062 2.90625 -24.875 Z M 2.90625 -24.875 "/></g></g></g><g fill="#000000" fill-opacity="1"><g transform="translate(147.769727, 117.546299)"><g><path d="M 20.515625 0.6875 C 17.941406 0.6875 15.5625 0.191406 13.375 -0.796875 C 11.1875 -1.785156 9.296875 -3.144531 7.703125 -4.875 C 6.109375 -6.601562 4.875 -8.582031 4 -10.8125 C 3.125 -13.050781 2.6875 -15.410156 2.6875 -17.890625 C 2.6875 -20.472656 3.125 -22.878906 4 -25.109375 C 4.875 -27.347656 6.117188 -29.332031 7.734375 -31.0625 C 9.347656 -32.789062 11.25 -34.148438 13.4375 -35.140625 C 15.625 -36.128906 18.007812 -36.625 20.59375 -36.625 C 23.164062 -36.625 25.535156 -36.128906 27.703125 -35.140625 C 29.867188 -34.148438 31.757812 -32.789062 33.375 -31.0625 C 34.988281 -29.332031 36.234375 -27.347656 37.109375 -25.109375 C 37.984375 -22.878906 38.421875 -20.472656 38.421875 -17.890625 C 38.421875 -15.410156 37.984375 -13.050781 37.109375 -10.8125 C 36.234375 -8.582031 35 -6.601562 33.40625 -4.875 C 31.8125 -3.144531 29.921875 -1.785156 27.734375 -0.796875 C 25.546875 0.191406 23.140625 0.6875 20.515625 0.6875 Z M 7.46875 -17.828125 C 7.46875 -15.148438 8.050781 -12.71875 9.21875 -10.53125 C 10.394531 -8.34375 11.972656 -6.613281 13.953125 -5.34375 C 15.929688 -4.082031 18.117188 -3.453125 20.515625 -3.453125 C 22.910156 -3.453125 25.097656 -4.097656 27.078125 -5.390625 C 29.066406 -6.679688 30.660156 -8.441406 31.859375 -10.671875 C 33.054688 -12.910156 33.65625 -15.34375 33.65625 -17.96875 C 33.65625 -20.632812 33.054688 -23.070312 31.859375 -25.28125 C 30.660156 -27.5 29.066406 -29.25 27.078125 -30.53125 C 25.097656 -31.820312 22.910156 -32.46875 20.515625 -32.46875 C 18.117188 -32.46875 15.941406 -31.800781 13.984375 -30.46875 C 12.035156 -29.132812 10.460938 -27.375 9.265625 -25.1875 C 8.066406 -23 7.46875 -20.546875 7.46875 -17.828125 Z M 7.46875 -17.828125 "/></g></g></g><g fill="#000000" fill-opacity="1"><g transform="translate(188.872286, 117.546299)"><g><path d="M 2.765625 -17.890625 C 2.765625 -21.304688 3.46875 -24.425781 4.875 -27.25 C 6.28125 -30.082031 8.222656 -32.351562 10.703125 -34.0625 C 13.191406 -35.769531 16.023438 -36.625 19.203125 -36.625 C 22.203125 -36.625 24.882812 -35.828125 27.25 -34.234375 C 29.625 -32.648438 31.476562 -30.726562 32.8125 -28.46875 L 32.8125 -50.4375 L 37.515625 -50.4375 L 37.515625 -5.671875 C 37.515625 -5.023438 37.648438 -4.550781 37.921875 -4.25 C 38.203125 -3.945312 38.617188 -3.773438 39.171875 -3.734375 L 39.171875 0 C 38.253906 0.132812 37.539062 0.179688 37.03125 0.140625 C 36.0625 0.0859375 35.207031 -0.300781 34.46875 -1.03125 C 33.738281 -1.769531 33.375 -2.578125 33.375 -3.453125 L 33.375 -6.984375 C 31.945312 -4.628906 30.007812 -2.757812 27.5625 -1.375 C 25.125 0 22.59375 0.6875 19.96875 0.6875 C 17.476562 0.6875 15.1875 0.179688 13.09375 -0.828125 C 11 -1.835938 9.175781 -3.21875 7.625 -4.96875 C 6.082031 -6.71875 4.882812 -8.707031 4.03125 -10.9375 C 3.1875 -13.175781 2.765625 -15.492188 2.765625 -17.890625 Z M 32.8125 -12.375 L 32.8125 -23.484375 C 32.21875 -25.148438 31.25 -26.660156 29.90625 -28.015625 C 28.570312 -29.378906 27.066406 -30.460938 25.390625 -31.265625 C 23.710938 -32.066406 22.039062 -32.46875 20.375 -32.46875 C 18.445312 -32.46875 16.695312 -32.066406 15.125 -31.265625 C 13.5625 -30.460938 12.210938 -29.367188 11.078125 -27.984375 C 9.953125 -26.597656 9.085938 -25.03125 8.484375 -23.28125 C 7.890625 -21.53125 7.59375 -19.734375 7.59375 -17.890625 C 7.59375 -15.960938 7.925781 -14.125 8.59375 -12.375 C 9.269531 -10.625 10.226562 -9.066406 11.46875 -7.703125 C 12.707031 -6.347656 14.132812 -5.300781 15.75 -4.5625 C 17.363281 -3.820312 19.113281 -3.453125 21 -3.453125 C 22.195312 -3.453125 23.441406 -3.679688 24.734375 -4.140625 C 26.023438 -4.609375 27.253906 -5.242188 28.421875 -6.046875 C 29.597656 -6.847656 30.578125 -7.800781 31.359375 -8.90625 C 32.148438 -10.019531 32.632812 -11.175781 32.8125 -12.375 Z M 32.8125 -12.375 "/></g></g></g><g fill="#000000" fill-opacity="1"><g transform="translate(231.840018, 117.546299)"><g><path d="M 20.734375 0.6875 C 18.148438 0.6875 15.75 0.191406 13.53125 -0.796875 C 11.320312 -1.785156 9.410156 -3.144531 7.796875 -4.875 C 6.191406 -6.601562 4.9375 -8.59375 4.03125 -10.84375 C 3.132812 -13.101562 2.6875 -15.523438 2.6875 -18.109375 C 2.6875 -21.460938 3.457031 -24.546875 5 -27.359375 C 6.550781 -30.171875 8.6875 -32.414062 11.40625 -34.09375 C 14.125 -35.78125 17.207031 -36.625 20.65625 -36.625 C 24.207031 -36.625 27.304688 -35.769531 29.953125 -34.0625 C 32.597656 -32.351562 34.679688 -30.101562 36.203125 -27.3125 C 37.722656 -24.53125 38.484375 -21.484375 38.484375 -18.171875 C 38.484375 -17.804688 38.484375 -17.445312 38.484375 -17.09375 C 38.484375 -16.75 38.460938 -16.488281 38.421875 -16.3125 L 7.59375 -16.3125 C 7.832031 -13.726562 8.5625 -11.429688 9.78125 -9.421875 C 11 -7.421875 12.585938 -5.832031 14.546875 -4.65625 C 16.503906 -3.488281 18.632812 -2.90625 20.9375 -2.90625 C 23.28125 -2.90625 25.5 -3.503906 27.59375 -4.703125 C 29.695312 -5.898438 31.160156 -7.460938 31.984375 -9.390625 L 36.0625 -8.296875 C 35.332031 -6.585938 34.207031 -5.039062 32.6875 -3.65625 C 31.164062 -2.28125 29.378906 -1.210938 27.328125 -0.453125 C 25.273438 0.304688 23.078125 0.6875 20.734375 0.6875 Z M 7.46875 -19.6875 L 34.0625 -19.6875 C 33.875 -22.3125 33.171875 -24.613281 31.953125 -26.59375 C 30.734375 -28.582031 29.144531 -30.140625 27.1875 -31.265625 C 25.226562 -32.390625 23.078125 -32.953125 20.734375 -32.953125 C 18.378906 -32.953125 16.234375 -32.390625 14.296875 -31.265625 C 12.367188 -30.140625 10.789062 -28.570312 9.5625 -26.5625 C 8.34375 -24.5625 7.644531 -22.269531 7.46875 -19.6875 Z M 7.46875 -19.6875 "/></g></g></g><g fill="#000000" fill-opacity="1"><g transform="translate(272.389948, 117.546299)"><g><path d="M 17 0.6875 C 14.050781 0.6875 11.304688 0.203125 8.765625 -0.765625 C 6.234375 -1.734375 4.050781 -3.207031 2.21875 -5.1875 L 4.140625 -8.5 C 6.171875 -6.613281 8.207031 -5.242188 10.25 -4.390625 C 12.300781 -3.535156 14.484375 -3.109375 16.796875 -3.109375 C 19.597656 -3.109375 21.875 -3.671875 23.625 -4.796875 C 25.375 -5.929688 26.25 -7.554688 26.25 -9.671875 C 26.25 -11.097656 25.820312 -12.191406 24.96875 -12.953125 C 24.125 -13.710938 22.90625 -14.332031 21.3125 -14.8125 C 19.726562 -15.300781 17.828125 -15.820312 15.609375 -16.375 C 13.128906 -17.0625 11.046875 -17.785156 9.359375 -18.546875 C 7.679688 -19.304688 6.414062 -20.273438 5.5625 -21.453125 C 4.707031 -22.628906 4.28125 -24.160156 4.28125 -26.046875 C 4.28125 -28.398438 4.867188 -30.347656 6.046875 -31.890625 C 7.222656 -33.429688 8.832031 -34.601562 10.875 -35.40625 C 12.925781 -36.21875 15.21875 -36.625 17.75 -36.625 C 20.519531 -36.625 22.960938 -36.1875 25.078125 -35.3125 C 27.203125 -34.4375 28.929688 -33.210938 30.265625 -31.640625 L 27.984375 -28.46875 C 26.691406 -29.9375 25.160156 -31.023438 23.390625 -31.734375 C 21.617188 -32.453125 19.648438 -32.8125 17.484375 -32.8125 C 16.003906 -32.8125 14.597656 -32.613281 13.265625 -32.21875 C 11.929688 -31.832031 10.835938 -31.191406 9.984375 -30.296875 C 9.128906 -29.398438 8.703125 -28.164062 8.703125 -26.59375 C 8.703125 -25.3125 9.023438 -24.3125 9.671875 -23.59375 C 10.316406 -22.882812 11.285156 -22.285156 12.578125 -21.796875 C 13.867188 -21.316406 15.457031 -20.800781 17.34375 -20.25 C 20.0625 -19.507812 22.429688 -18.757812 24.453125 -18 C 26.484375 -17.238281 28.050781 -16.257812 29.15625 -15.0625 C 30.257812 -13.863281 30.8125 -12.179688 30.8125 -10.015625 C 30.8125 -6.648438 29.546875 -4.023438 27.015625 -2.140625 C 24.484375 -0.253906 21.144531 0.6875 17 0.6875 Z M 17 0.6875 "/></g></g></g><g fill="#000000" fill-opacity="1"><g transform="translate(305.755566, 117.546299)"><g><path d="M 17 0.6875 C 14.050781 0.6875 11.304688 0.203125 8.765625 -0.765625 C 6.234375 -1.734375 4.050781 -3.207031 2.21875 -5.1875 L 4.140625 -8.5 C 6.171875 -6.613281 8.207031 -5.242188 10.25 -4.390625 C 12.300781 -3.535156 14.484375 -3.109375 16.796875 -3.109375 C 19.597656 -3.109375 21.875 -3.671875 23.625 -4.796875 C 25.375 -5.929688 26.25 -7.554688 26.25 -9.671875 C 26.25 -11.097656 25.820312 -12.191406 24.96875 -12.953125 C 24.125 -13.710938 22.90625 -14.332031 21.3125 -14.8125 C 19.726562 -15.300781 17.828125 -15.820312 15.609375 -16.375 C 13.128906 -17.0625 11.046875 -17.785156 9.359375 -18.546875 C 7.679688 -19.304688 6.414062 -20.273438 5.5625 -21.453125 C 4.707031 -22.628906 4.28125 -24.160156 4.28125 -26.046875 C 4.28125 -28.398438 4.867188 -30.347656 6.046875 -31.890625 C 7.222656 -33.429688 8.832031 -34.601562 10.875 -35.40625 C 12.925781 -36.21875 15.21875 -36.625 17.75 -36.625 C 20.519531 -36.625 22.960938 -36.1875 25.078125 -35.3125 C 27.203125 -34.4375 28.929688 -33.210938 30.265625 -31.640625 L 27.984375 -28.46875 C 26.691406 -29.9375 25.160156 -31.023438 23.390625 -31.734375 C 21.617188 -32.453125 19.648438 -32.8125 17.484375 -32.8125 C 16.003906 -32.8125 14.597656 -32.613281 13.265625 -32.21875 C 11.929688 -31.832031 10.835938 -31.191406 9.984375 -30.296875 C 9.128906 -29.398438 8.703125 -28.164062 8.703125 -26.59375 C 8.703125 -25.3125 9.023438 -24.3125 9.671875 -23.59375 C 10.316406 -22.882812 11.285156 -22.285156 12.578125 -21.796875 C 13.867188 -21.316406 15.457031 -20.800781 17.34375 -20.25 C 20.0625 -19.507812 22.429688 -18.757812 24.453125 -18 C 26.484375 -17.238281 28.050781 -16.257812 29.15625 -15.0625 C 30.257812 -13.863281 30.8125 -12.179688 30.8125 -10.015625 C 30.8125 -6.648438 29.546875 -4.023438 27.015625 -2.140625 C 24.484375 -0.253906 21.144531 0.6875 17 0.6875 Z M 17 0.6875 "/></g></g></g><g fill="#000000" fill-opacity="1"><g transform="translate(339.121184, 117.546299)"><g><path d="M 2.28125 -10.359375 C 2.28125 -12.617188 2.925781 -14.566406 4.21875 -16.203125 C 5.507812 -17.835938 7.289062 -19.101562 9.5625 -20 C 11.84375 -20.894531 14.484375 -21.34375 17.484375 -21.34375 C 19.234375 -21.34375 21.050781 -21.203125 22.9375 -20.921875 C 24.820312 -20.648438 26.503906 -20.238281 27.984375 -19.6875 L 27.984375 -22.734375 C 27.984375 -25.773438 27.082031 -28.191406 25.28125 -29.984375 C 23.488281 -31.785156 21.003906 -32.6875 17.828125 -32.6875 C 15.890625 -32.6875 13.988281 -32.328125 12.125 -31.609375 C 10.257812 -30.898438 8.3125 -29.851562 6.28125 -28.46875 L 4.484375 -31.78125 C 6.835938 -33.394531 9.140625 -34.601562 11.390625 -35.40625 C 13.648438 -36.21875 15.957031 -36.625 18.3125 -36.625 C 22.726562 -36.625 26.226562 -35.351562 28.8125 -32.8125 C 31.394531 -30.28125 32.6875 -26.78125 32.6875 -22.3125 L 32.6875 -5.671875 C 32.6875 -5.023438 32.820312 -4.550781 33.09375 -4.25 C 33.375 -3.945312 33.8125 -3.773438 34.40625 -3.734375 L 34.40625 0 C 33.90625 0.0390625 33.46875 0.0820312 33.09375 0.125 C 32.726562 0.175781 32.453125 0.179688 32.265625 0.140625 C 31.117188 0.0859375 30.242188 -0.28125 29.640625 -0.96875 C 29.046875 -1.65625 28.722656 -2.390625 28.671875 -3.171875 L 28.609375 -5.796875 C 26.992188 -3.722656 24.894531 -2.125 22.3125 -1 C 19.738281 0.125 17.113281 0.6875 14.4375 0.6875 C 12.132812 0.6875 10.050781 0.191406 8.1875 -0.796875 C 6.320312 -1.785156 4.867188 -3.117188 3.828125 -4.796875 C 2.796875 -6.484375 2.28125 -8.335938 2.28125 -10.359375 Z M 26.390625 -7.59375 C 26.898438 -8.238281 27.289062 -8.859375 27.5625 -9.453125 C 27.84375 -10.054688 27.984375 -10.59375 27.984375 -11.0625 L 27.984375 -16.3125 C 26.421875 -16.90625 24.796875 -17.363281 23.109375 -17.6875 C 21.429688 -18.007812 19.738281 -18.171875 18.03125 -18.171875 C 14.664062 -18.171875 11.945312 -17.503906 9.875 -16.171875 C 7.800781 -14.835938 6.765625 -13.015625 6.765625 -10.703125 C 6.765625 -9.367188 7.109375 -8.113281 7.796875 -6.9375 C 8.492188 -5.769531 9.507812 -4.804688 10.84375 -4.046875 C 12.175781 -3.285156 13.742188 -2.90625 15.546875 -2.90625 C 17.804688 -2.90625 19.910156 -3.34375 21.859375 -4.21875 C 23.816406 -5.09375 25.328125 -6.21875 26.390625 -7.59375 Z M 26.390625 -7.59375 "/></g></g></g></svg>