<svg xmlns="http://www.w3.org/2000/svg" xmlns:xlink="http://www.w3.org/1999/xlink" width="500" zoomAndPan="magnify" viewBox="0 0 375 187.499995" height="250" preserveAspectRatio="xMidYMid meet" version="1.0"><defs><clipPath id="c8f9bf39e5"><path d="M 42.273438 0 L 317.539062 0 L 317.539062 187 L 42.273438 187 Z M 42.273438 0 " clip-rule="nonzero"/></clipPath><clipPath id="be703e587c"><path d="M 147.597656 54.476562 L 203.699219 54.476562 L 203.699219 110.578125 L 147.597656 110.578125 Z M 147.597656 54.476562 " clip-rule="nonzero"/></clipPath><clipPath id="63ddffbfbd"><path d="M 175.648438 54.476562 C 160.15625 54.476562 147.597656 67.035156 147.597656 82.527344 C 147.597656 98.019531 160.15625 110.578125 175.648438 110.578125 C 191.140625 110.578125 203.699219 98.019531 203.699219 82.527344 C 203.699219 67.035156 191.140625 54.476562 175.648438 54.476562 Z M 175.648438 54.476562 " clip-rule="nonzero"/></clipPath></defs><g clip-path="url(#c8f9bf39e5)"><path fill="#ffffff" d="M 317.773438 186.304688 L 167.90625 186.304688 L 242.839844 56.515625 Z M 222.824219 77.019531 L 178.605469 0.480469 L 131.527344 82.023438 L 117.210938 57.21875 L 42.273438 187.011719 L 159.316406 187.011719 L 217.296875 86.582031 Z M 222.824219 77.019531 " fill-opacity="1" fill-rule="nonzero"/></g><g clip-path="url(#be703e587c)"><g clip-path="url(#63ddffbfbd)"><path fill="#ffffff" d="M 147.597656 54.476562 L 203.699219 54.476562 L 203.699219 110.578125 L 147.597656 110.578125 Z M 147.597656 54.476562 " fill-opacity="1" fill-rule="nonzero"/></g></g></svg>