<svg xmlns="http://www.w3.org/2000/svg" xmlns:xlink="http://www.w3.org/1999/xlink" width="103" zoomAndPan="magnify" viewBox="0 0 77.25 30.000001" height="40" preserveAspectRatio="xMidYMid meet" version="1.0"><defs><g/><clipPath id="37f9cf2227"><path d="M 60 6 L 66 6 L 66 10 L 60 10 Z M 60 6 " clip-rule="nonzero"/></clipPath><clipPath id="b1c3b69362"><path d="M 59.441406 4.449219 L 76.289062 0.0195312 L 79.425781 11.949219 L 62.582031 16.378906 Z M 59.441406 4.449219 " clip-rule="nonzero"/></clipPath><clipPath id="64bf978b5c"><path d="M 76.355469 0 L 59.507812 4.429688 L 62.648438 16.363281 L 79.492188 11.933594 Z M 76.355469 0 " clip-rule="nonzero"/></clipPath><clipPath id="25724dbf23"><path d="M 65.3125 6.082031 L 60.234375 7.417969 L 61.144531 10.878906 L 66.222656 9.546875 Z M 65.3125 6.082031 " clip-rule="nonzero"/></clipPath><clipPath id="25c43fdd06"><path d="M 63 7 L 65 7 L 65 8 L 63 8 Z M 63 7 " clip-rule="nonzero"/></clipPath><clipPath id="a1cf2e8950"><path d="M 59.441406 4.449219 L 76.289062 0.0195312 L 79.425781 11.949219 L 62.582031 16.378906 Z M 59.441406 4.449219 " clip-rule="nonzero"/></clipPath><clipPath id="ac938e5bc1"><path d="M 76.355469 0 L 59.507812 4.429688 L 62.648438 16.363281 L 79.492188 11.933594 Z M 76.355469 0 " clip-rule="nonzero"/></clipPath><clipPath id="9ea338827c"><path d="M 66 3 L 75 3 L 75 8 L 66 8 Z M 66 3 " clip-rule="nonzero"/></clipPath><clipPath id="7d6fe3274c"><path d="M 59.441406 4.449219 L 76.289062 0.0195312 L 79.425781 11.949219 L 62.582031 16.378906 Z M 59.441406 4.449219 " clip-rule="nonzero"/></clipPath><clipPath id="36dfac7f4a"><path d="M 76.355469 0 L 59.507812 4.429688 L 62.648438 16.363281 L 79.492188 11.933594 Z M 76.355469 0 " clip-rule="nonzero"/></clipPath><clipPath id="8aac0af569"><path d="M 66 7 L 69 7 L 69 9 L 66 9 Z M 66 7 " clip-rule="nonzero"/></clipPath><clipPath id="c0f17aeefe"><path d="M 59.441406 4.449219 L 76.289062 0.0195312 L 79.425781 11.949219 L 62.582031 16.378906 Z M 59.441406 4.449219 " clip-rule="nonzero"/></clipPath><clipPath id="094b1d63e0"><path d="M 76.355469 0 L 59.507812 4.429688 L 62.648438 16.363281 L 79.492188 11.933594 Z M 76.355469 0 " clip-rule="nonzero"/></clipPath><clipPath id="ea85ce9e99"><path d="M 66 7 L 70 7 L 70 8 L 66 8 Z M 66 7 " clip-rule="nonzero"/></clipPath><clipPath id="419f4d72da"><path d="M 59.441406 4.449219 L 76.289062 0.0195312 L 79.425781 11.949219 L 62.582031 16.378906 Z M 59.441406 4.449219 " clip-rule="nonzero"/></clipPath><clipPath id="b0ad8c1668"><path d="M 76.355469 0 L 59.507812 4.429688 L 62.648438 16.363281 L 79.492188 11.933594 Z M 76.355469 0 " clip-rule="nonzero"/></clipPath><clipPath id="f8bf609cbc"><path d="M 66 5 L 72 5 L 72 8 L 66 8 Z M 66 5 " clip-rule="nonzero"/></clipPath><clipPath id="fee86c7d15"><path d="M 59.441406 4.449219 L 76.289062 0.0195312 L 79.425781 11.949219 L 62.582031 16.378906 Z M 59.441406 4.449219 " clip-rule="nonzero"/></clipPath><clipPath id="e5e80fd519"><path d="M 76.355469 0 L 59.507812 4.429688 L 62.648438 16.363281 L 79.492188 11.933594 Z M 76.355469 0 " clip-rule="nonzero"/></clipPath><clipPath id="4a6a629748"><path d="M 67 3 L 75 3 L 75 7 L 67 7 Z M 67 3 " clip-rule="nonzero"/></clipPath><clipPath id="8305598f09"><path d="M 59.441406 4.449219 L 76.289062 0.0195312 L 79.425781 11.949219 L 62.582031 16.378906 Z M 59.441406 4.449219 " clip-rule="nonzero"/></clipPath><clipPath id="e081ada159"><path d="M 76.355469 0 L 59.507812 4.429688 L 62.648438 16.363281 L 79.492188 11.933594 Z M 76.355469 0 " clip-rule="nonzero"/></clipPath><clipPath id="7d72f64b84"><path d="M 66 2 L 72 2 L 72 8 L 66 8 Z M 66 2 " clip-rule="nonzero"/></clipPath><clipPath id="9386fc218f"><path d="M 59.441406 4.449219 L 76.289062 0.0195312 L 79.425781 11.949219 L 62.582031 16.378906 Z M 59.441406 4.449219 " clip-rule="nonzero"/></clipPath><clipPath id="89fae97aab"><path d="M 76.355469 0 L 59.507812 4.429688 L 62.648438 16.363281 L 79.492188 11.933594 Z M 76.355469 0 " clip-rule="nonzero"/></clipPath><clipPath id="a59144405e"><path d="M 65 8 L 69 8 L 69 16 L 65 16 Z M 65 8 " clip-rule="nonzero"/></clipPath><clipPath id="fa5afc1545"><path d="M 59.441406 4.449219 L 76.289062 0.0195312 L 79.425781 11.949219 L 62.582031 16.378906 Z M 59.441406 4.449219 " clip-rule="nonzero"/></clipPath><clipPath id="5567a301cf"><path d="M 76.355469 0 L 59.507812 4.429688 L 62.648438 16.363281 L 79.492188 11.933594 Z M 76.355469 0 " clip-rule="nonzero"/></clipPath><clipPath id="4658490881"><path d="M 67.882812 8.632812 L 65.136719 9.355469 L 66.703125 15.308594 L 69.449219 14.585938 Z M 67.882812 8.632812 " clip-rule="nonzero"/></clipPath></defs><g clip-path="url(#37f9cf2227)"><g clip-path="url(#b1c3b69362)"><g clip-path="url(#64bf978b5c)"><g clip-path="url(#25724dbf23)"><path fill="#ffffff" d="M 62.710938 7.804688 C 63.8125 5.292969 65.523438 6.898438 65.523438 6.898438 C 64.484375 6.351562 63.65625 6.65625 63.355469 7.195312 C 63.054688 7.738281 64.300781 7.816406 65.191406 7.800781 C 66.082031 7.785156 65.472656 9.734375 65.472656 9.734375 C 65.472656 9.734375 65.023438 9.003906 64.554688 8.511719 C 64.476562 8.433594 64.386719 8.359375 64.285156 8.300781 C 63.730469 7.957031 63.027344 7.957031 62.457031 8.269531 L 60.710938 9.230469 L 62.710938 7.804688 " fill-opacity="1" fill-rule="nonzero"/></g></g></g></g><g clip-path="url(#25c43fdd06)"><g clip-path="url(#a1cf2e8950)"><g clip-path="url(#ac938e5bc1)"><path fill="#ffffff" d="M 63.589844 7.390625 C 63.507812 7.289062 63.527344 7.140625 63.628906 7.058594 C 63.730469 6.976562 63.878906 6.992188 63.960938 7.097656 C 64.042969 7.199219 64.027344 7.347656 63.925781 7.429688 C 63.820312 7.511719 63.671875 7.492188 63.589844 7.390625 " fill-opacity="1" fill-rule="nonzero"/></g></g></g><g clip-path="url(#9ea338827c)"><g clip-path="url(#7d6fe3274c)"><g clip-path="url(#36dfac7f4a)"><path fill="#ffffff" d="M 66.15625 7.199219 C 66.15625 7.199219 70.347656 2.769531 73.796875 3.101562 C 77.246094 3.4375 71.527344 3.117188 66.15625 7.199219 " fill-opacity="1" fill-rule="nonzero"/></g></g></g><g clip-path="url(#8aac0af569)"><g clip-path="url(#c0f17aeefe)"><g clip-path="url(#094b1d63e0)"><path fill="#ffffff" d="M 68.628906 8.625 C 69.203125 9.789062 66.308594 7.390625 66.308594 7.390625 C 66.308594 7.390625 68.054688 7.460938 68.628906 8.625 " fill-opacity="1" fill-rule="nonzero"/></g></g></g><g clip-path="url(#ea85ce9e99)"><g clip-path="url(#419f4d72da)"><g clip-path="url(#b0ad8c1668)"><path fill="#ffffff" d="M 69.734375 7.871094 C 69.164062 8.339844 66.585938 7.167969 66.585938 7.167969 C 66.585938 7.167969 70.304688 7.402344 69.734375 7.871094 " fill-opacity="1" fill-rule="nonzero"/></g></g></g><g clip-path="url(#f8bf609cbc)"><g clip-path="url(#fee86c7d15)"><g clip-path="url(#e5e80fd519)"><path fill="#ffffff" d="M 71.148438 6.335938 C 70.878906 7.539062 66.886719 6.929688 66.886719 6.929688 C 66.886719 6.929688 71.417969 5.136719 71.148438 6.335938 " fill-opacity="1" fill-rule="nonzero"/></g></g></g><g clip-path="url(#4a6a629748)"><g clip-path="url(#8305598f09)"><g clip-path="url(#e081ada159)"><path fill="#ffffff" d="M 74.238281 3.917969 C 75.464844 4.136719 67.652344 6.460938 67.652344 6.460938 C 67.652344 6.460938 73.007812 3.699219 74.238281 3.917969 " fill-opacity="1" fill-rule="nonzero"/></g></g></g><g clip-path="url(#7d72f64b84)"><g clip-path="url(#9386fc218f)"><g clip-path="url(#89fae97aab)"><path fill="#ffffff" d="M 66 7.003906 C 66 7.003906 70.433594 1.558594 71.230469 2.425781 C 72.027344 3.292969 69.6875 3.605469 66 7.003906 " fill-opacity="1" fill-rule="nonzero"/></g></g></g><g clip-path="url(#a59144405e)"><g clip-path="url(#fa5afc1545)"><g clip-path="url(#5567a301cf)"><g clip-path="url(#4658490881)"><path fill="#ffffff" d="M 67.445312 10.308594 C 67.039062 10.332031 65.109375 10.425781 65.476562 9.996094 C 65.699219 9.734375 66.265625 9.738281 66.730469 9.796875 C 67.097656 9.839844 67.4375 9.59375 67.511719 9.230469 C 67.550781 9.0625 67.601562 8.878906 67.671875 8.699219 C 67.671875 8.699219 69.054688 10.246094 67.851562 14.003906 C 66.644531 17.761719 67.738281 10.953125 67.738281 10.953125 C 67.738281 10.953125 67.21875 12.871094 66.703125 12.566406 C 66.191406 12.265625 67.566406 10.808594 67.566406 10.808594 C 67.566406 10.808594 65.320312 12.84375 65.910156 11.566406 C 66.402344 10.496094 67.203125 10.332031 67.445312 10.308594 " fill-opacity="1" fill-rule="nonzero"/></g></g></g></g><g fill="#ffffff" fill-opacity="1"><g transform="translate(1.216339, 20.826026)"><g><path d="M 0.53125 -4.78125 C 0.53125 -5.457031 0.65625 -6.085938 0.90625 -6.671875 C 1.15625 -7.265625 1.484375 -7.78125 1.890625 -8.21875 C 2.316406 -8.644531 2.828125 -8.992188 3.421875 -9.265625 C 4.015625 -9.546875 4.632812 -9.6875 5.28125 -9.6875 C 6.007812 -9.6875 6.675781 -9.535156 7.28125 -9.234375 C 7.894531 -8.941406 8.414062 -8.523438 8.84375 -7.984375 C 9.269531 -7.453125 9.570312 -6.828125 9.75 -6.109375 L 8.375 -6.109375 C 8.125 -6.828125 7.722656 -7.375 7.171875 -7.75 C 6.617188 -8.125 5.988281 -8.3125 5.28125 -8.3125 C 4.820312 -8.3125 4.378906 -8.210938 3.953125 -8.015625 C 3.523438 -7.816406 3.160156 -7.5625 2.859375 -7.25 C 2.554688 -6.9375 2.316406 -6.566406 2.140625 -6.140625 C 1.960938 -5.722656 1.875 -5.269531 1.875 -4.78125 C 1.875 -4.300781 1.957031 -3.847656 2.125 -3.421875 C 2.300781 -3.003906 2.539062 -2.632812 2.84375 -2.3125 C 3.144531 -2.007812 3.507812 -1.765625 3.9375 -1.578125 C 4.375 -1.390625 4.820312 -1.296875 5.28125 -1.296875 C 6.007812 -1.296875 6.660156 -1.5 7.234375 -1.90625 C 7.804688 -2.3125 8.21875 -2.875 8.46875 -3.59375 L 9.828125 -3.59375 C 9.640625 -2.875 9.332031 -2.234375 8.90625 -1.671875 C 8.476562 -1.117188 7.953125 -0.691406 7.328125 -0.390625 C 6.710938 -0.0859375 6.03125 0.0625 5.28125 0.0625 C 4.632812 0.0625 4.019531 -0.0625 3.4375 -0.3125 C 2.851562 -0.5625 2.351562 -0.90625 1.9375 -1.34375 C 1.519531 -1.78125 1.179688 -2.289062 0.921875 -2.875 C 0.660156 -3.46875 0.53125 -4.101562 0.53125 -4.78125 Z M 0.53125 -4.78125 "/></g></g></g><g fill="#ffffff" fill-opacity="1"><g transform="translate(12.331847, 20.826026)"><g><path d="M 0.484375 -4.796875 C 0.484375 -5.492188 0.609375 -6.144531 0.859375 -6.75 C 1.117188 -7.351562 1.476562 -7.882812 1.9375 -8.34375 C 2.394531 -8.800781 2.921875 -9.15625 3.515625 -9.40625 C 4.117188 -9.664062 4.765625 -9.796875 5.453125 -9.796875 C 6.148438 -9.796875 6.800781 -9.664062 7.40625 -9.40625 C 8.007812 -9.15625 8.539062 -8.800781 9 -8.34375 C 9.457031 -7.882812 9.8125 -7.351562 10.0625 -6.75 C 10.320312 -6.144531 10.453125 -5.492188 10.453125 -4.796875 C 10.453125 -4.109375 10.320312 -3.460938 10.0625 -2.859375 C 9.8125 -2.265625 9.457031 -1.738281 9 -1.28125 C 8.539062 -0.820312 8.007812 -0.460938 7.40625 -0.203125 C 6.800781 0.046875 6.148438 0.171875 5.453125 0.171875 C 4.765625 0.171875 4.117188 0.046875 3.515625 -0.203125 C 2.921875 -0.460938 2.394531 -0.820312 1.9375 -1.28125 C 1.476562 -1.738281 1.117188 -2.265625 0.859375 -2.859375 C 0.609375 -3.460938 0.484375 -4.109375 0.484375 -4.796875 Z M 1.90625 -4.796875 C 1.90625 -4.140625 2.066406 -3.539062 2.390625 -3 C 2.710938 -2.46875 3.140625 -2.039062 3.671875 -1.71875 C 4.203125 -1.40625 4.796875 -1.25 5.453125 -1.25 C 6.117188 -1.25 6.71875 -1.40625 7.25 -1.71875 C 7.789062 -2.039062 8.222656 -2.46875 8.546875 -3 C 8.867188 -3.539062 9.03125 -4.140625 9.03125 -4.796875 C 9.03125 -5.460938 8.867188 -6.0625 8.546875 -6.59375 C 8.222656 -7.132812 7.789062 -7.566406 7.25 -7.890625 C 6.71875 -8.210938 6.117188 -8.375 5.453125 -8.375 C 4.796875 -8.375 4.203125 -8.210938 3.671875 -7.890625 C 3.140625 -7.566406 2.710938 -7.132812 2.390625 -6.59375 C 2.066406 -6.0625 1.90625 -5.460938 1.90625 -4.796875 Z M 1.90625 -4.796875 "/></g></g></g><g fill="#ffffff" fill-opacity="1"><g transform="translate(24.133479, 20.826026)"><g><path d="M 7.078125 -1.390625 L 7.078125 0 L 1.1875 0 L 1.1875 -9.609375 L 2.5625 -9.609375 L 2.5625 -1.390625 Z M 7.078125 -1.390625 "/></g></g></g><g fill="#ffffff" fill-opacity="1"><g transform="translate(32.051678, 20.826026)"><g><path d="M 4.34375 -8.40625 L 4.34375 -1.296875 L 6.125 -1.296875 L 6.125 0 L 1.1875 0 L 1.1875 -1.296875 L 2.96875 -1.296875 L 2.96875 -8.40625 L 1.1875 -8.40625 L 1.1875 -9.6875 L 6.125 -9.6875 L 6.125 -8.40625 Z M 4.34375 -8.40625 "/></g></g></g><g fill="#ffffff" fill-opacity="1"><g transform="translate(40.120826, 20.826026)"><g><path d="M 5.171875 -9.703125 C 5.703125 -9.703125 6.160156 -9.578125 6.546875 -9.328125 C 6.941406 -9.085938 7.242188 -8.773438 7.453125 -8.390625 C 7.660156 -8.003906 7.765625 -7.597656 7.765625 -7.171875 C 7.765625 -6.828125 7.6875 -6.488281 7.53125 -6.15625 C 7.375 -5.820312 7.128906 -5.53125 6.796875 -5.28125 C 7.347656 -5.050781 7.734375 -4.707031 7.953125 -4.25 C 8.179688 -3.800781 8.296875 -3.347656 8.296875 -2.890625 C 8.296875 -2.421875 8.191406 -1.960938 7.984375 -1.515625 C 7.773438 -1.066406 7.460938 -0.703125 7.046875 -0.421875 C 6.640625 -0.140625 6.128906 0 5.515625 0 L 1.1875 0 L 1.1875 -9.703125 Z M 5.140625 -5.78125 C 5.523438 -5.78125 5.816406 -5.921875 6.015625 -6.203125 C 6.222656 -6.484375 6.328125 -6.789062 6.328125 -7.125 C 6.328125 -7.4375 6.234375 -7.722656 6.046875 -7.984375 C 5.859375 -8.242188 5.566406 -8.375 5.171875 -8.375 L 2.546875 -8.375 L 2.546875 -5.78125 Z M 5.515625 -1.34375 C 5.828125 -1.34375 6.082031 -1.414062 6.28125 -1.5625 C 6.488281 -1.71875 6.644531 -1.914062 6.75 -2.15625 C 6.863281 -2.394531 6.921875 -2.632812 6.921875 -2.875 C 6.921875 -3.132812 6.863281 -3.378906 6.75 -3.609375 C 6.644531 -3.835938 6.488281 -4.023438 6.28125 -4.171875 C 6.082031 -4.328125 5.828125 -4.40625 5.515625 -4.40625 L 2.546875 -4.40625 L 2.546875 -1.34375 Z M 5.515625 -1.34375 "/></g></g></g><g fill="#ffffff" fill-opacity="1"><g transform="translate(49.699431, 20.826026)"><g><path d="M 4.671875 -4.875 C 5.066406 -4.875 5.390625 -4.953125 5.640625 -5.109375 C 5.898438 -5.273438 6.09375 -5.484375 6.21875 -5.734375 C 6.351562 -5.992188 6.421875 -6.265625 6.421875 -6.546875 C 6.421875 -6.816406 6.351562 -7.085938 6.21875 -7.359375 C 6.09375 -7.640625 5.898438 -7.867188 5.640625 -8.046875 C 5.390625 -8.234375 5.066406 -8.328125 4.671875 -8.328125 L 2.546875 -8.328125 L 2.546875 0 L 1.1875 0 L 1.1875 -9.734375 L 4.671875 -9.734375 C 5.191406 -9.734375 5.648438 -9.640625 6.046875 -9.453125 C 6.441406 -9.265625 6.769531 -9.015625 7.03125 -8.703125 C 7.289062 -8.398438 7.484375 -8.0625 7.609375 -7.6875 C 7.742188 -7.3125 7.8125 -6.929688 7.8125 -6.546875 C 7.8125 -6.097656 7.71875 -5.664062 7.53125 -5.25 C 7.34375 -4.832031 7.0625 -4.476562 6.6875 -4.1875 C 6.320312 -3.90625 5.867188 -3.710938 5.328125 -3.609375 L 8.359375 0 L 6.5625 0 L 3.0625 -4.21875 L 3.0625 -4.875 Z M 4.671875 -4.875 "/></g></g></g><g fill="#ffffff" fill-opacity="1"><g transform="translate(58.64681, 20.826026)"><g><path d="M 4.34375 -8.40625 L 4.34375 -1.296875 L 6.125 -1.296875 L 6.125 0 L 1.1875 0 L 1.1875 -1.296875 L 2.96875 -1.296875 L 2.96875 -8.40625 L 1.1875 -8.40625 L 1.1875 -9.6875 L 6.125 -9.6875 L 6.125 -8.40625 Z M 4.34375 -8.40625 "/></g></g></g><g fill="#ffffff" fill-opacity="1"><g transform="translate(66.720371, 20.826026)"><g/></g></g><g fill="#fca311" fill-opacity="1"><g transform="translate(2.335981, 26.146639)"><g><path d="M 0.1875 -1.6875 C 0.1875 -1.925781 0.226562 -2.148438 0.3125 -2.359375 C 0.40625 -2.566406 0.523438 -2.75 0.671875 -2.90625 C 0.816406 -3.050781 0.992188 -3.171875 1.203125 -3.265625 C 1.410156 -3.367188 1.628906 -3.421875 1.859375 -3.421875 C 2.117188 -3.421875 2.351562 -3.367188 2.5625 -3.265625 C 2.78125 -3.160156 2.960938 -3.007812 3.109375 -2.8125 C 3.265625 -2.625 3.375 -2.40625 3.4375 -2.15625 L 2.953125 -2.15625 C 2.867188 -2.40625 2.726562 -2.597656 2.53125 -2.734375 C 2.332031 -2.867188 2.109375 -2.9375 1.859375 -2.9375 C 1.703125 -2.9375 1.546875 -2.898438 1.390625 -2.828125 C 1.242188 -2.765625 1.113281 -2.675781 1 -2.5625 C 0.894531 -2.445312 0.8125 -2.316406 0.75 -2.171875 C 0.6875 -2.023438 0.65625 -1.863281 0.65625 -1.6875 C 0.65625 -1.519531 0.6875 -1.359375 0.75 -1.203125 C 0.8125 -1.054688 0.894531 -0.925781 1 -0.8125 C 1.101562 -0.707031 1.234375 -0.617188 1.390625 -0.546875 C 1.546875 -0.484375 1.703125 -0.453125 1.859375 -0.453125 C 2.117188 -0.453125 2.347656 -0.523438 2.546875 -0.671875 C 2.753906 -0.816406 2.898438 -1.015625 2.984375 -1.265625 L 3.46875 -1.265625 C 3.40625 -1.015625 3.296875 -0.789062 3.140625 -0.59375 C 2.992188 -0.394531 2.8125 -0.238281 2.59375 -0.125 C 2.375 -0.0195312 2.128906 0.03125 1.859375 0.03125 C 1.628906 0.03125 1.410156 -0.0078125 1.203125 -0.09375 C 1.003906 -0.1875 0.832031 -0.3125 0.6875 -0.46875 C 0.539062 -0.625 0.421875 -0.804688 0.328125 -1.015625 C 0.234375 -1.222656 0.1875 -1.445312 0.1875 -1.6875 Z M 0.1875 -1.6875 "/></g></g></g><g fill="#fca311" fill-opacity="1"><g transform="translate(6.255406, 26.146639)"><g><path d="M 3.078125 -1.3125 C 3.078125 -1.082031 3.035156 -0.878906 2.953125 -0.703125 C 2.878906 -0.535156 2.773438 -0.394531 2.640625 -0.28125 C 2.503906 -0.175781 2.347656 -0.09375 2.171875 -0.03125 C 2.003906 0.0195312 1.832031 0.046875 1.65625 0.046875 C 1.476562 0.046875 1.304688 0.0195312 1.140625 -0.03125 C 0.972656 -0.09375 0.820312 -0.175781 0.6875 -0.28125 C 0.550781 -0.394531 0.441406 -0.535156 0.359375 -0.703125 C 0.285156 -0.878906 0.25 -1.082031 0.25 -1.3125 C 0.25 -1.53125 0.285156 -1.722656 0.359375 -1.890625 C 0.441406 -2.066406 0.550781 -2.210938 0.6875 -2.328125 C 0.820312 -2.441406 0.972656 -2.523438 1.140625 -2.578125 C 1.316406 -2.628906 1.492188 -2.65625 1.671875 -2.65625 C 1.847656 -2.65625 2.019531 -2.628906 2.1875 -2.578125 C 2.351562 -2.523438 2.503906 -2.441406 2.640625 -2.328125 C 2.773438 -2.210938 2.878906 -2.066406 2.953125 -1.890625 C 3.035156 -1.722656 3.078125 -1.53125 3.078125 -1.3125 Z M 0.71875 -1.3125 C 0.71875 -1.101562 0.765625 -0.929688 0.859375 -0.796875 C 0.953125 -0.660156 1.070312 -0.554688 1.21875 -0.484375 C 1.363281 -0.410156 1.515625 -0.375 1.671875 -0.375 C 1.828125 -0.375 1.972656 -0.410156 2.109375 -0.484375 C 2.253906 -0.554688 2.375 -0.660156 2.46875 -0.796875 C 2.5625 -0.929688 2.609375 -1.101562 2.609375 -1.3125 C 2.609375 -1.519531 2.5625 -1.691406 2.46875 -1.828125 C 2.375 -1.960938 2.253906 -2.066406 2.109375 -2.140625 C 1.972656 -2.210938 1.828125 -2.25 1.671875 -2.25 C 1.515625 -2.25 1.363281 -2.210938 1.21875 -2.140625 C 1.070312 -2.066406 0.953125 -1.960938 0.859375 -1.828125 C 0.765625 -1.691406 0.71875 -1.519531 0.71875 -1.3125 Z M 0.71875 -1.3125 "/></g></g></g><g fill="#fca311" fill-opacity="1"><g transform="translate(9.884504, 26.146639)"><g><path d="M 0.84375 -2.296875 C 0.9375 -2.441406 1.050781 -2.535156 1.1875 -2.578125 C 1.320312 -2.628906 1.472656 -2.65625 1.640625 -2.65625 C 1.910156 -2.65625 2.128906 -2.601562 2.296875 -2.5 C 2.460938 -2.394531 2.582031 -2.25 2.65625 -2.0625 C 2.738281 -1.875 2.78125 -1.65625 2.78125 -1.40625 L 2.78125 0 L 2.3125 0 L 2.3125 -1.40625 C 2.3125 -1.570312 2.289062 -1.71875 2.25 -1.84375 C 2.21875 -1.96875 2.148438 -2.0625 2.046875 -2.125 C 1.941406 -2.195312 1.796875 -2.234375 1.609375 -2.234375 C 1.441406 -2.234375 1.300781 -2.195312 1.1875 -2.125 C 1.070312 -2.050781 0.984375 -1.953125 0.921875 -1.828125 C 0.867188 -1.710938 0.84375 -1.578125 0.84375 -1.421875 L 0.84375 0 L 0.359375 0 L 0.359375 -2.625 L 0.84375 -2.625 Z M 0.84375 -2.296875 "/></g></g></g><g fill="#fca311" fill-opacity="1"><g transform="translate(13.291018, 26.146639)"><g><path d="M 0.6875 -1.859375 C 0.6875 -1.785156 0.707031 -1.722656 0.75 -1.671875 C 0.789062 -1.628906 0.84375 -1.597656 0.90625 -1.578125 C 0.96875 -1.554688 1.035156 -1.539062 1.109375 -1.53125 C 1.179688 -1.53125 1.242188 -1.53125 1.296875 -1.53125 C 1.421875 -1.519531 1.546875 -1.5 1.671875 -1.46875 C 1.796875 -1.445312 1.910156 -1.40625 2.015625 -1.34375 C 2.117188 -1.289062 2.203125 -1.210938 2.265625 -1.109375 C 2.328125 -1.015625 2.359375 -0.894531 2.359375 -0.75 C 2.359375 -0.59375 2.320312 -0.460938 2.25 -0.359375 C 2.1875 -0.265625 2.097656 -0.1875 1.984375 -0.125 C 1.878906 -0.0625 1.765625 -0.0195312 1.640625 0 C 1.515625 0.03125 1.390625 0.046875 1.265625 0.046875 C 1.085938 0.046875 0.914062 0.0195312 0.75 -0.03125 C 0.59375 -0.09375 0.460938 -0.1875 0.359375 -0.3125 C 0.253906 -0.4375 0.195312 -0.597656 0.1875 -0.796875 L 0.65625 -0.796875 C 0.664062 -0.660156 0.726562 -0.554688 0.84375 -0.484375 C 0.96875 -0.410156 1.113281 -0.375 1.28125 -0.375 C 1.351562 -0.375 1.4375 -0.382812 1.53125 -0.40625 C 1.625 -0.425781 1.707031 -0.460938 1.78125 -0.515625 C 1.851562 -0.566406 1.890625 -0.644531 1.890625 -0.75 C 1.890625 -0.820312 1.863281 -0.878906 1.8125 -0.921875 C 1.769531 -0.972656 1.710938 -1.007812 1.640625 -1.03125 C 1.578125 -1.0625 1.507812 -1.078125 1.4375 -1.078125 C 1.375 -1.085938 1.3125 -1.097656 1.25 -1.109375 C 1.132812 -1.109375 1.015625 -1.117188 0.890625 -1.140625 C 0.773438 -1.171875 0.664062 -1.210938 0.5625 -1.265625 C 0.457031 -1.316406 0.375 -1.390625 0.3125 -1.484375 C 0.25 -1.585938 0.21875 -1.710938 0.21875 -1.859375 C 0.21875 -2.054688 0.269531 -2.210938 0.375 -2.328125 C 0.476562 -2.453125 0.609375 -2.539062 0.765625 -2.59375 C 0.929688 -2.644531 1.097656 -2.671875 1.265625 -2.671875 C 1.441406 -2.671875 1.601562 -2.644531 1.75 -2.59375 C 1.894531 -2.539062 2.015625 -2.457031 2.109375 -2.34375 C 2.210938 -2.226562 2.269531 -2.082031 2.28125 -1.90625 L 1.8125 -1.90625 C 1.800781 -2.019531 1.738281 -2.101562 1.625 -2.15625 C 1.519531 -2.21875 1.394531 -2.25 1.25 -2.25 C 1.101562 -2.25 0.972656 -2.21875 0.859375 -2.15625 C 0.742188 -2.09375 0.6875 -1.992188 0.6875 -1.859375 Z M 0.6875 -1.859375 "/></g></g></g><g fill="#fca311" fill-opacity="1"><g transform="translate(16.083003, 26.146639)"><g><path d="M 0.984375 -2.625 L 1.5625 -2.625 L 1.5625 -2.25 L 0.984375 -2.25 L 0.984375 -0.765625 C 0.984375 -0.609375 1.019531 -0.503906 1.09375 -0.453125 C 1.164062 -0.398438 1.257812 -0.375 1.375 -0.375 C 1.40625 -0.375 1.4375 -0.375 1.46875 -0.375 C 1.5 -0.382812 1.535156 -0.390625 1.578125 -0.390625 L 1.578125 0 C 1.535156 0.0078125 1.492188 0.015625 1.453125 0.015625 C 1.421875 0.015625 1.390625 0.015625 1.359375 0.015625 C 1.179688 0.015625 1.03125 -0.00390625 0.90625 -0.046875 C 0.78125 -0.0976562 0.679688 -0.179688 0.609375 -0.296875 C 0.546875 -0.410156 0.515625 -0.566406 0.515625 -0.765625 L 0.515625 -2.25 L 0.109375 -2.25 L 0.109375 -2.625 L 0.515625 -2.625 L 0.515625 -3.109375 L 0.984375 -3.203125 Z M 0.984375 -2.625 "/></g></g></g><g fill="#fca311" fill-opacity="1"><g transform="translate(18.018523, 26.146639)"><g><path d="M 0.828125 -2.296875 C 0.921875 -2.429688 1.03125 -2.523438 1.15625 -2.578125 C 1.289062 -2.640625 1.429688 -2.671875 1.578125 -2.671875 C 1.628906 -2.671875 1.679688 -2.664062 1.734375 -2.65625 C 1.785156 -2.65625 1.835938 -2.648438 1.890625 -2.640625 L 1.890625 -2.21875 C 1.804688 -2.238281 1.722656 -2.25 1.640625 -2.25 C 1.492188 -2.25 1.359375 -2.210938 1.234375 -2.140625 C 1.117188 -2.066406 1.019531 -1.96875 0.9375 -1.84375 C 0.863281 -1.71875 0.828125 -1.578125 0.828125 -1.421875 L 0.828125 0 L 0.359375 0 L 0.359375 -2.609375 L 0.828125 -2.609375 Z M 0.828125 -2.296875 "/></g></g></g><g fill="#fca311" fill-opacity="1"><g transform="translate(20.321791, 26.146639)"><g><path d="M 2.296875 -0.34375 C 2.203125 -0.195312 2.082031 -0.0976562 1.9375 -0.046875 C 1.789062 0.00390625 1.632812 0.03125 1.46875 0.03125 C 1.207031 0.03125 0.988281 -0.015625 0.8125 -0.109375 C 0.644531 -0.210938 0.519531 -0.359375 0.4375 -0.546875 C 0.363281 -0.742188 0.328125 -0.960938 0.328125 -1.203125 L 0.328125 -2.640625 L 0.796875 -2.640625 L 0.796875 -1.203125 C 0.796875 -1.046875 0.816406 -0.90625 0.859375 -0.78125 C 0.898438 -0.65625 0.96875 -0.554688 1.0625 -0.484375 C 1.164062 -0.410156 1.3125 -0.375 1.5 -0.375 C 1.75 -0.375 1.9375 -0.453125 2.0625 -0.609375 C 2.195312 -0.773438 2.265625 -0.972656 2.265625 -1.203125 L 2.265625 -2.640625 L 2.75 -2.640625 L 2.75 0 L 2.296875 0 Z M 2.296875 -0.34375 "/></g></g></g><g fill="#fca311" fill-opacity="1"><g transform="translate(23.708949, 26.146639)"><g><path d="M 2.9375 -1 C 2.894531 -0.769531 2.800781 -0.578125 2.65625 -0.421875 C 2.519531 -0.265625 2.359375 -0.148438 2.171875 -0.078125 C 1.992188 -0.00390625 1.800781 0.03125 1.59375 0.03125 C 1.425781 0.03125 1.257812 0.00390625 1.09375 -0.046875 C 0.9375 -0.0976562 0.789062 -0.179688 0.65625 -0.296875 C 0.53125 -0.410156 0.429688 -0.550781 0.359375 -0.71875 C 0.285156 -0.882812 0.25 -1.082031 0.25 -1.3125 C 0.25 -1.539062 0.285156 -1.738281 0.359375 -1.90625 C 0.429688 -2.070312 0.53125 -2.210938 0.65625 -2.328125 C 0.789062 -2.441406 0.9375 -2.523438 1.09375 -2.578125 C 1.257812 -2.628906 1.429688 -2.65625 1.609375 -2.65625 C 1.804688 -2.65625 1.992188 -2.617188 2.171875 -2.546875 C 2.359375 -2.472656 2.519531 -2.359375 2.65625 -2.203125 C 2.800781 -2.046875 2.894531 -1.851562 2.9375 -1.625 L 2.4375 -1.625 C 2.382812 -1.832031 2.28125 -1.988281 2.125 -2.09375 C 1.96875 -2.195312 1.796875 -2.25 1.609375 -2.25 C 1.460938 -2.25 1.320312 -2.210938 1.1875 -2.140625 C 1.050781 -2.078125 0.9375 -1.972656 0.84375 -1.828125 C 0.757812 -1.691406 0.71875 -1.519531 0.71875 -1.3125 C 0.71875 -1.101562 0.757812 -0.925781 0.84375 -0.78125 C 0.9375 -0.644531 1.050781 -0.539062 1.1875 -0.46875 C 1.320312 -0.40625 1.46875 -0.375 1.625 -0.375 C 1.800781 -0.375 1.96875 -0.425781 2.125 -0.53125 C 2.28125 -0.632812 2.382812 -0.789062 2.4375 -1 Z M 2.9375 -1 "/></g></g></g><g fill="#fca311" fill-opacity="1"><g transform="translate(27.149335, 26.146639)"><g><path d="M 0.984375 -2.625 L 1.5625 -2.625 L 1.5625 -2.25 L 0.984375 -2.25 L 0.984375 -0.765625 C 0.984375 -0.609375 1.019531 -0.503906 1.09375 -0.453125 C 1.164062 -0.398438 1.257812 -0.375 1.375 -0.375 C 1.40625 -0.375 1.4375 -0.375 1.46875 -0.375 C 1.5 -0.382812 1.535156 -0.390625 1.578125 -0.390625 L 1.578125 0 C 1.535156 0.0078125 1.492188 0.015625 1.453125 0.015625 C 1.421875 0.015625 1.390625 0.015625 1.359375 0.015625 C 1.179688 0.015625 1.03125 -0.00390625 0.90625 -0.046875 C 0.78125 -0.0976562 0.679688 -0.179688 0.609375 -0.296875 C 0.546875 -0.410156 0.515625 -0.566406 0.515625 -0.765625 L 0.515625 -2.25 L 0.109375 -2.25 L 0.109375 -2.625 L 0.515625 -2.625 L 0.515625 -3.109375 L 0.984375 -3.203125 Z M 0.984375 -2.625 "/></g></g></g><g fill="#fca311" fill-opacity="1"><g transform="translate(29.084855, 26.146639)"><g><path d="M 0.328125 -3.296875 C 0.328125 -3.378906 0.359375 -3.441406 0.421875 -3.484375 C 0.484375 -3.535156 0.554688 -3.5625 0.640625 -3.5625 C 0.710938 -3.5625 0.773438 -3.539062 0.828125 -3.5 C 0.890625 -3.457031 0.921875 -3.390625 0.921875 -3.296875 C 0.921875 -3.203125 0.890625 -3.128906 0.828125 -3.078125 C 0.765625 -3.035156 0.695312 -3.015625 0.625 -3.015625 C 0.550781 -3.015625 0.484375 -3.035156 0.421875 -3.078125 C 0.359375 -3.128906 0.328125 -3.203125 0.328125 -3.296875 Z M 0.390625 -2.65625 L 0.390625 0 L 0.859375 0 L 0.859375 -2.65625 Z M 0.390625 -2.65625 "/></g></g></g><g fill="#fca311" fill-opacity="1"><g transform="translate(30.657463, 26.146639)"><g><path d="M 3.078125 -1.3125 C 3.078125 -1.082031 3.035156 -0.878906 2.953125 -0.703125 C 2.878906 -0.535156 2.773438 -0.394531 2.640625 -0.28125 C 2.503906 -0.175781 2.347656 -0.09375 2.171875 -0.03125 C 2.003906 0.0195312 1.832031 0.046875 1.65625 0.046875 C 1.476562 0.046875 1.304688 0.0195312 1.140625 -0.03125 C 0.972656 -0.09375 0.820312 -0.175781 0.6875 -0.28125 C 0.550781 -0.394531 0.441406 -0.535156 0.359375 -0.703125 C 0.285156 -0.878906 0.25 -1.082031 0.25 -1.3125 C 0.25 -1.53125 0.285156 -1.722656 0.359375 -1.890625 C 0.441406 -2.066406 0.550781 -2.210938 0.6875 -2.328125 C 0.820312 -2.441406 0.972656 -2.523438 1.140625 -2.578125 C 1.316406 -2.628906 1.492188 -2.65625 1.671875 -2.65625 C 1.847656 -2.65625 2.019531 -2.628906 2.1875 -2.578125 C 2.351562 -2.523438 2.503906 -2.441406 2.640625 -2.328125 C 2.773438 -2.210938 2.878906 -2.066406 2.953125 -1.890625 C 3.035156 -1.722656 3.078125 -1.53125 3.078125 -1.3125 Z M 0.71875 -1.3125 C 0.71875 -1.101562 0.765625 -0.929688 0.859375 -0.796875 C 0.953125 -0.660156 1.070312 -0.554688 1.21875 -0.484375 C 1.363281 -0.410156 1.515625 -0.375 1.671875 -0.375 C 1.828125 -0.375 1.972656 -0.410156 2.109375 -0.484375 C 2.253906 -0.554688 2.375 -0.660156 2.46875 -0.796875 C 2.5625 -0.929688 2.609375 -1.101562 2.609375 -1.3125 C 2.609375 -1.519531 2.5625 -1.691406 2.46875 -1.828125 C 2.375 -1.960938 2.253906 -2.066406 2.109375 -2.140625 C 1.972656 -2.210938 1.828125 -2.25 1.671875 -2.25 C 1.515625 -2.25 1.363281 -2.210938 1.21875 -2.140625 C 1.070312 -2.066406 0.953125 -1.960938 0.859375 -1.828125 C 0.765625 -1.691406 0.71875 -1.519531 0.71875 -1.3125 Z M 0.71875 -1.3125 "/></g></g></g><g fill="#fca311" fill-opacity="1"><g transform="translate(34.28656, 26.146639)"><g><path d="M 0.84375 -2.296875 C 0.9375 -2.441406 1.050781 -2.535156 1.1875 -2.578125 C 1.320312 -2.628906 1.472656 -2.65625 1.640625 -2.65625 C 1.910156 -2.65625 2.128906 -2.601562 2.296875 -2.5 C 2.460938 -2.394531 2.582031 -2.25 2.65625 -2.0625 C 2.738281 -1.875 2.78125 -1.65625 2.78125 -1.40625 L 2.78125 0 L 2.3125 0 L 2.3125 -1.40625 C 2.3125 -1.570312 2.289062 -1.71875 2.25 -1.84375 C 2.21875 -1.96875 2.148438 -2.0625 2.046875 -2.125 C 1.941406 -2.195312 1.796875 -2.234375 1.609375 -2.234375 C 1.441406 -2.234375 1.300781 -2.195312 1.1875 -2.125 C 1.070312 -2.050781 0.984375 -1.953125 0.921875 -1.828125 C 0.867188 -1.710938 0.84375 -1.578125 0.84375 -1.421875 L 0.84375 0 L 0.359375 0 L 0.359375 -2.625 L 0.84375 -2.625 Z M 0.84375 -2.296875 "/></g></g></g><g fill="#fca311" fill-opacity="1"><g transform="translate(37.693074, 26.146639)"><g/></g></g><g fill="#fca311" fill-opacity="1"><g transform="translate(39.168904, 26.146639)"><g><path d="M 2.109375 -2.515625 C 2.085938 -2.609375 2.039062 -2.6875 1.96875 -2.75 C 1.894531 -2.820312 1.8125 -2.867188 1.71875 -2.890625 C 1.625 -2.921875 1.53125 -2.9375 1.4375 -2.9375 C 1.320312 -2.9375 1.203125 -2.914062 1.078125 -2.875 C 0.960938 -2.84375 0.867188 -2.78125 0.796875 -2.6875 C 0.773438 -2.65625 0.753906 -2.613281 0.734375 -2.5625 C 0.722656 -2.519531 0.71875 -2.472656 0.71875 -2.421875 C 0.71875 -2.296875 0.753906 -2.195312 0.828125 -2.125 C 0.910156 -2.0625 1.007812 -2.019531 1.125 -2 C 1.238281 -1.976562 1.359375 -1.960938 1.484375 -1.953125 C 1.609375 -1.929688 1.726562 -1.90625 1.84375 -1.875 C 1.96875 -1.851562 2.085938 -1.816406 2.203125 -1.765625 C 2.316406 -1.710938 2.410156 -1.640625 2.484375 -1.546875 C 2.566406 -1.460938 2.625 -1.351562 2.65625 -1.21875 C 2.675781 -1.144531 2.6875 -1.070312 2.6875 -1 C 2.6875 -0.832031 2.648438 -0.6875 2.578125 -0.5625 C 2.503906 -0.4375 2.40625 -0.328125 2.28125 -0.234375 C 2.164062 -0.148438 2.03125 -0.0820312 1.875 -0.03125 C 1.726562 0.0078125 1.578125 0.03125 1.421875 0.03125 C 1.296875 0.03125 1.164062 0.0078125 1.03125 -0.03125 C 0.894531 -0.0703125 0.765625 -0.128906 0.640625 -0.203125 C 0.523438 -0.273438 0.425781 -0.367188 0.34375 -0.484375 C 0.269531 -0.597656 0.222656 -0.734375 0.203125 -0.890625 L 0.203125 -0.984375 L 0.703125 -0.984375 L 0.703125 -0.921875 L 0.703125 -0.9375 C 0.710938 -0.832031 0.753906 -0.742188 0.828125 -0.671875 C 0.910156 -0.597656 1.003906 -0.539062 1.109375 -0.5 C 1.222656 -0.46875 1.332031 -0.453125 1.4375 -0.453125 C 1.5625 -0.453125 1.679688 -0.472656 1.796875 -0.515625 C 1.910156 -0.566406 2.003906 -0.628906 2.078125 -0.703125 C 2.148438 -0.785156 2.1875 -0.882812 2.1875 -1 C 2.1875 -1.039062 2.179688 -1.082031 2.171875 -1.125 C 2.160156 -1.207031 2.113281 -1.269531 2.03125 -1.3125 C 1.957031 -1.363281 1.867188 -1.394531 1.765625 -1.40625 C 1.660156 -1.425781 1.550781 -1.441406 1.4375 -1.453125 C 1.300781 -1.472656 1.164062 -1.492188 1.03125 -1.515625 C 0.894531 -1.546875 0.769531 -1.59375 0.65625 -1.65625 C 0.539062 -1.71875 0.441406 -1.800781 0.359375 -1.90625 C 0.285156 -2.007812 0.242188 -2.148438 0.234375 -2.328125 C 0.234375 -2.347656 0.234375 -2.363281 0.234375 -2.375 C 0.234375 -2.382812 0.234375 -2.394531 0.234375 -2.40625 C 0.234375 -2.625 0.296875 -2.8125 0.421875 -2.96875 C 0.535156 -3.125 0.679688 -3.238281 0.859375 -3.3125 C 1.046875 -3.382812 1.238281 -3.421875 1.4375 -3.421875 C 1.613281 -3.421875 1.785156 -3.390625 1.953125 -3.328125 C 2.117188 -3.265625 2.257812 -3.164062 2.375 -3.03125 C 2.488281 -2.90625 2.5625 -2.738281 2.59375 -2.53125 Z M 2.109375 -2.515625 "/></g></g></g><g fill="#fca311" fill-opacity="1"><g transform="translate(42.318956, 26.146639)"><g><path d="M 2.9375 -1.421875 C 2.9375 -1.410156 2.9375 -1.394531 2.9375 -1.375 C 2.9375 -1.363281 2.9375 -1.351562 2.9375 -1.34375 C 2.9375 -1.289062 2.929688 -1.242188 2.921875 -1.203125 L 0.703125 -1.203125 C 0.703125 -1.023438 0.75 -0.875 0.84375 -0.75 C 0.9375 -0.632812 1.050781 -0.539062 1.1875 -0.46875 C 1.320312 -0.40625 1.457031 -0.375 1.59375 -0.375 C 1.75 -0.375 1.894531 -0.410156 2.03125 -0.484375 C 2.175781 -0.554688 2.289062 -0.664062 2.375 -0.8125 L 2.859375 -0.8125 C 2.796875 -0.613281 2.695312 -0.453125 2.5625 -0.328125 C 2.425781 -0.203125 2.273438 -0.109375 2.109375 -0.046875 C 1.941406 0.015625 1.765625 0.046875 1.578125 0.046875 C 1.410156 0.046875 1.242188 0.0195312 1.078125 -0.03125 C 0.921875 -0.09375 0.773438 -0.175781 0.640625 -0.28125 C 0.515625 -0.394531 0.414062 -0.535156 0.34375 -0.703125 C 0.269531 -0.878906 0.234375 -1.082031 0.234375 -1.3125 C 0.234375 -1.53125 0.269531 -1.722656 0.34375 -1.890625 C 0.414062 -2.066406 0.515625 -2.207031 0.640625 -2.3125 C 0.773438 -2.425781 0.921875 -2.507812 1.078125 -2.5625 C 1.242188 -2.625 1.414062 -2.65625 1.59375 -2.65625 C 1.8125 -2.65625 2.019531 -2.609375 2.21875 -2.515625 C 2.414062 -2.429688 2.578125 -2.296875 2.703125 -2.109375 C 2.835938 -1.921875 2.914062 -1.691406 2.9375 -1.421875 Z M 2.4375 -1.59375 C 2.40625 -1.75 2.347656 -1.875 2.265625 -1.96875 C 2.179688 -2.0625 2.078125 -2.128906 1.953125 -2.171875 C 1.835938 -2.222656 1.71875 -2.25 1.59375 -2.25 C 1.46875 -2.25 1.34375 -2.222656 1.21875 -2.171875 C 1.101562 -2.128906 1 -2.0625 0.90625 -1.96875 C 0.820312 -1.875 0.757812 -1.75 0.71875 -1.59375 Z M 2.4375 -1.59375 "/></g></g></g><g fill="#fca311" fill-opacity="1"><g transform="translate(45.783533, 26.146639)"><g><path d="M 0.828125 -2.296875 C 0.921875 -2.429688 1.03125 -2.523438 1.15625 -2.578125 C 1.289062 -2.640625 1.429688 -2.671875 1.578125 -2.671875 C 1.628906 -2.671875 1.679688 -2.664062 1.734375 -2.65625 C 1.785156 -2.65625 1.835938 -2.648438 1.890625 -2.640625 L 1.890625 -2.21875 C 1.804688 -2.238281 1.722656 -2.25 1.640625 -2.25 C 1.492188 -2.25 1.359375 -2.210938 1.234375 -2.140625 C 1.117188 -2.066406 1.019531 -1.96875 0.9375 -1.84375 C 0.863281 -1.71875 0.828125 -1.578125 0.828125 -1.421875 L 0.828125 0 L 0.359375 0 L 0.359375 -2.609375 L 0.828125 -2.609375 Z M 0.828125 -2.296875 "/></g></g></g><g fill="#fca311" fill-opacity="1"><g transform="translate(48.086799, 26.146639)"><g><path d="M 2.078125 -2.625 L 2.578125 -2.625 L 1.515625 0.015625 L 1.140625 0.015625 L 0.078125 -2.625 L 0.578125 -2.625 L 1 -1.5625 L 1.328125 -0.640625 L 1.640625 -1.546875 Z M 2.078125 -2.625 "/></g></g></g><g fill="#fca311" fill-opacity="1"><g transform="translate(51.014267, 26.146639)"><g><path d="M 0.328125 -3.296875 C 0.328125 -3.378906 0.359375 -3.441406 0.421875 -3.484375 C 0.484375 -3.535156 0.554688 -3.5625 0.640625 -3.5625 C 0.710938 -3.5625 0.773438 -3.539062 0.828125 -3.5 C 0.890625 -3.457031 0.921875 -3.390625 0.921875 -3.296875 C 0.921875 -3.203125 0.890625 -3.128906 0.828125 -3.078125 C 0.765625 -3.035156 0.695312 -3.015625 0.625 -3.015625 C 0.550781 -3.015625 0.484375 -3.035156 0.421875 -3.078125 C 0.359375 -3.128906 0.328125 -3.203125 0.328125 -3.296875 Z M 0.390625 -2.65625 L 0.390625 0 L 0.859375 0 L 0.859375 -2.65625 Z M 0.390625 -2.65625 "/></g></g></g><g fill="#fca311" fill-opacity="1"><g transform="translate(52.586875, 26.146639)"><g><path d="M 2.9375 -1 C 2.894531 -0.769531 2.800781 -0.578125 2.65625 -0.421875 C 2.519531 -0.265625 2.359375 -0.148438 2.171875 -0.078125 C 1.992188 -0.00390625 1.800781 0.03125 1.59375 0.03125 C 1.425781 0.03125 1.257812 0.00390625 1.09375 -0.046875 C 0.9375 -0.0976562 0.789062 -0.179688 0.65625 -0.296875 C 0.53125 -0.410156 0.429688 -0.550781 0.359375 -0.71875 C 0.285156 -0.882812 0.25 -1.082031 0.25 -1.3125 C 0.25 -1.539062 0.285156 -1.738281 0.359375 -1.90625 C 0.429688 -2.070312 0.53125 -2.210938 0.65625 -2.328125 C 0.789062 -2.441406 0.9375 -2.523438 1.09375 -2.578125 C 1.257812 -2.628906 1.429688 -2.65625 1.609375 -2.65625 C 1.804688 -2.65625 1.992188 -2.617188 2.171875 -2.546875 C 2.359375 -2.472656 2.519531 -2.359375 2.65625 -2.203125 C 2.800781 -2.046875 2.894531 -1.851562 2.9375 -1.625 L 2.4375 -1.625 C 2.382812 -1.832031 2.28125 -1.988281 2.125 -2.09375 C 1.96875 -2.195312 1.796875 -2.25 1.609375 -2.25 C 1.460938 -2.25 1.320312 -2.210938 1.1875 -2.140625 C 1.050781 -2.078125 0.9375 -1.972656 0.84375 -1.828125 C 0.757812 -1.691406 0.71875 -1.519531 0.71875 -1.3125 C 0.71875 -1.101562 0.757812 -0.925781 0.84375 -0.78125 C 0.9375 -0.644531 1.050781 -0.539062 1.1875 -0.46875 C 1.320312 -0.40625 1.46875 -0.375 1.625 -0.375 C 1.800781 -0.375 1.96875 -0.425781 2.125 -0.53125 C 2.28125 -0.632812 2.382812 -0.789062 2.4375 -1 Z M 2.9375 -1 "/></g></g></g><g fill="#fca311" fill-opacity="1"><g transform="translate(56.02726, 26.146639)"><g><path d="M 2.9375 -1.421875 C 2.9375 -1.410156 2.9375 -1.394531 2.9375 -1.375 C 2.9375 -1.363281 2.9375 -1.351562 2.9375 -1.34375 C 2.9375 -1.289062 2.929688 -1.242188 2.921875 -1.203125 L 0.703125 -1.203125 C 0.703125 -1.023438 0.75 -0.875 0.84375 -0.75 C 0.9375 -0.632812 1.050781 -0.539062 1.1875 -0.46875 C 1.320312 -0.40625 1.457031 -0.375 1.59375 -0.375 C 1.75 -0.375 1.894531 -0.410156 2.03125 -0.484375 C 2.175781 -0.554688 2.289062 -0.664062 2.375 -0.8125 L 2.859375 -0.8125 C 2.796875 -0.613281 2.695312 -0.453125 2.5625 -0.328125 C 2.425781 -0.203125 2.273438 -0.109375 2.109375 -0.046875 C 1.941406 0.015625 1.765625 0.046875 1.578125 0.046875 C 1.410156 0.046875 1.242188 0.0195312 1.078125 -0.03125 C 0.921875 -0.09375 0.773438 -0.175781 0.640625 -0.28125 C 0.515625 -0.394531 0.414062 -0.535156 0.34375 -0.703125 C 0.269531 -0.878906 0.234375 -1.082031 0.234375 -1.3125 C 0.234375 -1.53125 0.269531 -1.722656 0.34375 -1.890625 C 0.414062 -2.066406 0.515625 -2.207031 0.640625 -2.3125 C 0.773438 -2.425781 0.921875 -2.507812 1.078125 -2.5625 C 1.242188 -2.625 1.414062 -2.65625 1.59375 -2.65625 C 1.8125 -2.65625 2.019531 -2.609375 2.21875 -2.515625 C 2.414062 -2.429688 2.578125 -2.296875 2.703125 -2.109375 C 2.835938 -1.921875 2.914062 -1.691406 2.9375 -1.421875 Z M 2.4375 -1.59375 C 2.40625 -1.75 2.347656 -1.875 2.265625 -1.96875 C 2.179688 -2.0625 2.078125 -2.128906 1.953125 -2.171875 C 1.835938 -2.222656 1.71875 -2.25 1.59375 -2.25 C 1.46875 -2.25 1.34375 -2.222656 1.21875 -2.171875 C 1.101562 -2.128906 1 -2.0625 0.90625 -1.96875 C 0.820312 -1.875 0.757812 -1.75 0.71875 -1.59375 Z M 2.4375 -1.59375 "/></g></g></g><g fill="#fca311" fill-opacity="1"><g transform="translate(59.491837, 26.146639)"><g><path d="M 0.6875 -1.859375 C 0.6875 -1.785156 0.707031 -1.722656 0.75 -1.671875 C 0.789062 -1.628906 0.84375 -1.597656 0.90625 -1.578125 C 0.96875 -1.554688 1.035156 -1.539062 1.109375 -1.53125 C 1.179688 -1.53125 1.242188 -1.53125 1.296875 -1.53125 C 1.421875 -1.519531 1.546875 -1.5 1.671875 -1.46875 C 1.796875 -1.445312 1.910156 -1.40625 2.015625 -1.34375 C 2.117188 -1.289062 2.203125 -1.210938 2.265625 -1.109375 C 2.328125 -1.015625 2.359375 -0.894531 2.359375 -0.75 C 2.359375 -0.59375 2.320312 -0.460938 2.25 -0.359375 C 2.1875 -0.265625 2.097656 -0.1875 1.984375 -0.125 C 1.878906 -0.0625 1.765625 -0.0195312 1.640625 0 C 1.515625 0.03125 1.390625 0.046875 1.265625 0.046875 C 1.085938 0.046875 0.914062 0.0195312 0.75 -0.03125 C 0.59375 -0.09375 0.460938 -0.1875 0.359375 -0.3125 C 0.253906 -0.4375 0.195312 -0.597656 0.1875 -0.796875 L 0.65625 -0.796875 C 0.664062 -0.660156 0.726562 -0.554688 0.84375 -0.484375 C 0.96875 -0.410156 1.113281 -0.375 1.28125 -0.375 C 1.351562 -0.375 1.4375 -0.382812 1.53125 -0.40625 C 1.625 -0.425781 1.707031 -0.460938 1.78125 -0.515625 C 1.851562 -0.566406 1.890625 -0.644531 1.890625 -0.75 C 1.890625 -0.820312 1.863281 -0.878906 1.8125 -0.921875 C 1.769531 -0.972656 1.710938 -1.007812 1.640625 -1.03125 C 1.578125 -1.0625 1.507812 -1.078125 1.4375 -1.078125 C 1.375 -1.085938 1.3125 -1.097656 1.25 -1.109375 C 1.132812 -1.109375 1.015625 -1.117188 0.890625 -1.140625 C 0.773438 -1.171875 0.664062 -1.210938 0.5625 -1.265625 C 0.457031 -1.316406 0.375 -1.390625 0.3125 -1.484375 C 0.25 -1.585938 0.21875 -1.710938 0.21875 -1.859375 C 0.21875 -2.054688 0.269531 -2.210938 0.375 -2.328125 C 0.476562 -2.453125 0.609375 -2.539062 0.765625 -2.59375 C 0.929688 -2.644531 1.097656 -2.671875 1.265625 -2.671875 C 1.441406 -2.671875 1.601562 -2.644531 1.75 -2.59375 C 1.894531 -2.539062 2.015625 -2.457031 2.109375 -2.34375 C 2.210938 -2.226562 2.269531 -2.082031 2.28125 -1.90625 L 1.8125 -1.90625 C 1.800781 -2.019531 1.738281 -2.101562 1.625 -2.15625 C 1.519531 -2.21875 1.394531 -2.25 1.25 -2.25 C 1.101562 -2.25 0.972656 -2.21875 0.859375 -2.15625 C 0.742188 -2.09375 0.6875 -1.992188 0.6875 -1.859375 Z M 0.6875 -1.859375 "/></g></g></g></svg>