<svg xmlns="http://www.w3.org/2000/svg" xmlns:xlink="http://www.w3.org/1999/xlink" width="103" zoomAndPan="magnify" viewBox="0 0 77.25 30.000001" height="40" preserveAspectRatio="xMidYMid meet" version="1.0"><defs><g/></defs><g fill="#010026" fill-opacity="1"><g transform="translate(19.427983, 21.785084)"><g><path d="M 10.46875 -19.03125 C 11.625 -19.03125 12.570312 -18.859375 13.3125 -18.515625 C 14.0625 -18.171875 14.726562 -17.769531 15.3125 -17.3125 C 15.664062 -17.050781 15.929688 -17.019531 16.109375 -17.21875 C 16.296875 -17.425781 16.425781 -17.90625 16.5 -18.65625 L 17.109375 -18.65625 C 17.066406 -17.976562 17.035156 -17.148438 17.015625 -16.171875 C 17.003906 -15.191406 17 -13.894531 17 -12.28125 L 16.390625 -12.28125 C 16.304688 -13.09375 16.191406 -13.78125 16.046875 -14.34375 C 15.910156 -14.914062 15.71875 -15.421875 15.46875 -15.859375 C 15.226562 -16.304688 14.878906 -16.703125 14.421875 -17.046875 C 13.984375 -17.492188 13.472656 -17.820312 12.890625 -18.03125 C 12.304688 -18.238281 11.703125 -18.34375 11.078125 -18.34375 C 10.117188 -18.34375 9.304688 -18.09375 8.640625 -17.59375 C 7.972656 -17.09375 7.429688 -16.410156 7.015625 -15.546875 C 6.609375 -14.691406 6.304688 -13.722656 6.109375 -12.640625 C 5.921875 -11.554688 5.828125 -10.4375 5.828125 -9.28125 C 5.828125 -8.101562 5.925781 -6.972656 6.125 -5.890625 C 6.332031 -4.804688 6.648438 -3.84375 7.078125 -3 C 7.503906 -2.15625 8.0625 -1.488281 8.75 -1 C 9.4375 -0.507812 10.242188 -0.265625 11.171875 -0.265625 C 11.753906 -0.265625 12.335938 -0.375 12.921875 -0.59375 C 13.515625 -0.8125 14.019531 -1.132812 14.4375 -1.5625 C 15.125 -2.082031 15.59375 -2.734375 15.84375 -3.515625 C 16.09375 -4.296875 16.273438 -5.335938 16.390625 -6.640625 L 17 -6.640625 C 17 -4.972656 17.003906 -3.625 17.015625 -2.59375 C 17.035156 -1.5625 17.066406 -0.695312 17.109375 0 L 16.5 0 C 16.425781 -0.757812 16.304688 -1.234375 16.140625 -1.421875 C 15.972656 -1.617188 15.695312 -1.59375 15.3125 -1.34375 C 14.664062 -0.882812 13.976562 -0.484375 13.25 -0.140625 C 12.519531 0.203125 11.582031 0.375 10.4375 0.375 C 8.570312 0.375 6.941406 0 5.546875 -0.75 C 4.148438 -1.507812 3.066406 -2.601562 2.296875 -4.03125 C 1.523438 -5.457031 1.140625 -7.171875 1.140625 -9.171875 C 1.140625 -11.140625 1.535156 -12.859375 2.328125 -14.328125 C 3.128906 -15.804688 4.226562 -16.957031 5.625 -17.78125 C 7.019531 -18.613281 8.632812 -19.03125 10.46875 -19.03125 Z M 10.46875 -19.03125 "/></g></g></g><g fill="#010026" fill-opacity="1"><g transform="translate(39.482943, 21.785084)"><g><path d="M 17.875 -18.65625 L 17.875 -18.140625 C 17.488281 -17.992188 17.078125 -17.679688 16.640625 -17.203125 C 16.210938 -16.734375 15.816406 -16 15.453125 -15 L 9.890625 0.046875 C 9.742188 0.0351562 9.59375 0.03125 9.4375 0.03125 C 9.28125 0.03125 9.125 0.03125 8.96875 0.03125 C 8.820312 0.03125 8.671875 0.03125 8.515625 0.03125 C 8.359375 0.03125 8.207031 0.0351562 8.0625 0.046875 L 1.34375 -16.453125 C 1.09375 -17.078125 0.816406 -17.507812 0.515625 -17.75 C 0.222656 -17.988281 -0.0507812 -18.117188 -0.3125 -18.140625 L -0.3125 -18.65625 C 0.207031 -18.644531 0.820312 -18.628906 1.53125 -18.609375 C 2.25 -18.585938 2.96875 -18.578125 3.6875 -18.578125 C 4.5 -18.578125 5.257812 -18.585938 5.96875 -18.609375 C 6.675781 -18.628906 7.253906 -18.644531 7.703125 -18.65625 L 7.703125 -18.140625 C 7.140625 -18.117188 6.695312 -18.050781 6.375 -17.9375 C 6.0625 -17.820312 5.882812 -17.609375 5.84375 -17.296875 C 5.8125 -16.992188 5.921875 -16.535156 6.171875 -15.921875 L 10.96875 -3.71875 L 10.40625 -3.0625 L 14.046875 -12.859375 C 14.523438 -14.179688 14.769531 -15.21875 14.78125 -15.96875 C 14.800781 -16.726562 14.617188 -17.273438 14.234375 -17.609375 C 13.847656 -17.941406 13.296875 -18.117188 12.578125 -18.140625 L 12.578125 -18.65625 C 13.171875 -18.644531 13.726562 -18.628906 14.25 -18.609375 C 14.78125 -18.585938 15.320312 -18.578125 15.875 -18.578125 C 16.257812 -18.578125 16.617188 -18.585938 16.953125 -18.609375 C 17.296875 -18.628906 17.601562 -18.644531 17.875 -18.65625 Z M 17.875 -18.65625 "/></g></g></g></svg>