<svg xmlns="http://www.w3.org/2000/svg" xmlns:xlink="http://www.w3.org/1999/xlink" width="103" zoomAndPan="magnify" viewBox="0 0 77.25 30.000001" height="40" preserveAspectRatio="xMidYMid meet" version="1.0"><path fill="#dea54b" d="M 22.070312 19.769531 L 22.070312 22.390625 L 22.792969 22.390625 C 23.777344 22.390625 24.339844 22.066406 24.339844 21.066406 C 24.339844 20.125 23.792969 19.769531 22.792969 19.769531 Z M 21.351562 19.535156 L 22.792969 19.535156 C 24.234375 19.535156 25.089844 20.003906 25.089844 21.078125 C 25.089844 22.214844 24.265625 22.640625 22.777344 22.640625 L 22.058594 22.640625 L 22.058594 24.804688 L 21.351562 24.804688 Z M 21.351562 19.535156 " fill-opacity="1" fill-rule="nonzero"/><path fill="#dea54b" d="M 28.429688 19.535156 L 31.769531 19.535156 L 31.769531 19.769531 L 29.152344 19.769531 L 29.152344 21.976562 L 31.226562 21.976562 L 31.226562 22.214844 L 29.152344 22.214844 L 29.152344 24.554688 L 31.859375 24.554688 L 31.859375 24.804688 L 28.429688 24.804688 Z M 28.429688 19.535156 " fill-opacity="1" fill-rule="nonzero"/><path fill="#dea54b" d="M 35.921875 22.917969 L 38.160156 22.917969 L 37.054688 20.09375 Z M 38.261719 23.199219 L 35.816406 23.199219 L 35.183594 24.804688 L 34.863281 24.804688 L 36.996094 19.550781 L 37.570312 19.550781 L 39.628906 24.804688 L 38.878906 24.804688 Z M 38.261719 23.199219 " fill-opacity="1" fill-rule="nonzero"/><path fill="#dea54b" d="M 44.957031 24.582031 C 45.605469 24.582031 46.003906 24.40625 46.460938 24.082031 L 46.589844 24.214844 C 46.046875 24.699219 45.472656 24.863281 44.722656 24.863281 C 43.191406 24.863281 42.074219 23.863281 42.074219 22.167969 C 42.074219 20.476562 43.191406 19.460938 44.722656 19.460938 C 45.503906 19.460938 46.019531 19.652344 46.519531 20.125 L 46.386719 20.242188 C 45.914062 19.886719 45.515625 19.742188 44.941406 19.742188 C 43.722656 19.742188 42.839844 20.625 42.839844 22.15625 C 42.824219 23.699219 43.722656 24.582031 44.957031 24.582031 " fill-opacity="1" fill-rule="nonzero"/><path fill="#dea54b" d="M 49.710938 19.535156 L 49.710938 24.804688 L 53.140625 24.804688 L 53.140625 24.554688 L 50.433594 24.554688 L 50.433594 22.214844 L 52.523438 22.214844 L 52.523438 21.976562 L 50.433594 21.976562 L 50.433594 19.769531 L 53.054688 19.769531 L 53.054688 19.535156 Z M 49.710938 19.535156 " fill-opacity="1" fill-rule="nonzero"/><path fill="#ccd8da" d="M 21.792969 26.597656 L 21.792969 27.703125 L 22.011719 27.703125 C 22.394531 27.703125 22.632812 27.570312 22.632812 27.144531 C 22.632812 26.746094 22.394531 26.597656 22.011719 26.597656 Z M 21.351562 26.480469 L 22 26.480469 C 22.660156 26.480469 23.101562 26.6875 23.101562 27.160156 C 23.101562 27.660156 22.703125 27.835938 22 27.835938 L 21.792969 27.835938 L 21.792969 28.71875 L 21.351562 28.71875 Z M 21.351562 26.480469 " fill-opacity="1" fill-rule="nonzero"/><path fill="#ccd8da" d="M 24.117188 26.480469 L 24.117188 28.703125 L 25.648438 28.703125 L 25.648438 28.585938 L 24.558594 28.585938 L 24.558594 27.628906 L 25.425781 27.628906 L 25.425781 27.496094 L 24.558594 27.496094 L 24.558594 26.597656 L 25.605469 26.597656 L 25.605469 26.480469 Z M 24.117188 26.480469 " fill-opacity="1" fill-rule="nonzero"/><path fill="#ccd8da" d="M 26.871094 26.480469 L 26.871094 28.703125 L 28.328125 28.703125 L 28.328125 28.585938 L 27.3125 28.585938 L 27.3125 26.480469 Z M 26.871094 26.480469 " fill-opacity="1" fill-rule="nonzero"/><path fill="#ccd8da" d="M 30.886719 26.480469 L 30.242188 28.484375 L 29.636719 26.480469 L 29.179688 26.480469 L 29.871094 28.703125 L 30.328125 28.703125 L 31.066406 26.480469 Z M 30.886719 26.480469 " fill-opacity="1" fill-rule="nonzero"/><path fill="#ccd8da" d="M 32.285156 26.480469 L 32.726562 26.480469 L 32.726562 28.71875 L 32.285156 28.71875 Z M 32.285156 26.480469 " fill-opacity="1" fill-rule="nonzero"/><path fill="#ccd8da" d="M 35.289062 28.601562 C 35.523438 28.601562 35.6875 28.542969 35.863281 28.425781 L 35.921875 28.484375 C 35.6875 28.675781 35.4375 28.746094 35.125 28.746094 C 34.449219 28.746094 33.949219 28.320312 33.949219 27.601562 C 33.949219 26.878906 34.433594 26.453125 35.140625 26.453125 C 35.496094 26.453125 35.699219 26.539062 35.890625 26.71875 L 35.832031 26.777344 C 35.640625 26.644531 35.480469 26.597656 35.273438 26.597656 C 34.773438 26.597656 34.421875 26.953125 34.421875 27.601562 C 34.421875 28.234375 34.773438 28.601562 35.289062 28.601562 " fill-opacity="1" fill-rule="nonzero"/><path fill="#ccd8da" d="M 40.058594 26.480469 L 40.058594 27.496094 L 39.011719 27.496094 L 39.011719 26.480469 L 38.570312 26.480469 L 38.570312 28.703125 L 39.011719 28.703125 L 39.011719 27.628906 L 40.058594 27.628906 L 40.058594 28.703125 L 40.511719 28.703125 L 40.511719 26.480469 Z M 40.058594 26.480469 " fill-opacity="1" fill-rule="nonzero"/><path fill="#ccd8da" d="M 41.558594 26.480469 L 41.558594 28.703125 L 43.089844 28.703125 L 43.089844 28.585938 L 42 28.585938 L 42 27.628906 L 42.867188 27.628906 L 42.867188 27.496094 L 42 27.496094 L 42 26.597656 L 43.058594 26.597656 L 43.058594 26.480469 Z M 41.558594 26.480469 " fill-opacity="1" fill-rule="nonzero"/><path fill="#ccd8da" d="M 44.707031 26.71875 L 45.148438 27.910156 L 44.222656 27.910156 Z M 44.648438 26.480469 L 43.75 28.71875 L 43.914062 28.71875 L 44.179688 28.042969 L 45.195312 28.042969 L 45.445312 28.71875 L 45.898438 28.71875 L 45.0625 26.480469 Z M 44.648438 26.480469 " fill-opacity="1" fill-rule="nonzero"/><path fill="#ccd8da" d="M 46.738281 26.480469 L 46.738281 28.703125 L 48.195312 28.703125 L 48.195312 28.585938 L 47.179688 28.585938 L 47.179688 26.480469 Z M 46.738281 26.480469 " fill-opacity="1" fill-rule="nonzero"/><path fill="#ccd8da" d="M 48.535156 26.480469 L 48.535156 26.597656 L 49.210938 26.597656 L 49.210938 28.703125 L 49.652344 28.703125 L 49.652344 26.597656 L 50.285156 26.597656 L 50.285156 26.480469 Z M 48.535156 26.480469 " fill-opacity="1" fill-rule="nonzero"/><path fill="#ccd8da" d="M 52.699219 26.480469 L 52.699219 27.496094 L 51.65625 27.496094 L 51.65625 26.480469 L 51.199219 26.480469 L 51.199219 28.703125 L 51.65625 28.703125 L 51.65625 27.628906 L 52.699219 27.628906 L 52.699219 28.703125 L 53.140625 28.703125 L 53.140625 26.480469 Z M 52.699219 26.480469 " fill-opacity="1" fill-rule="nonzero"/><path fill="#dea54b" d="M 40.160156 0.800781 C 39.128906 0.800781 38.277344 1.636719 38.277344 2.683594 L 38.277344 7.1875 C 38.277344 7.40625 38.363281 7.597656 38.511719 7.761719 L 42.074219 11.320312 C 42.382812 11.632812 42.898438 11.632812 43.207031 11.320312 L 52.347656 2.183594 C 52.625 1.902344 52.625 1.550781 52.523438 1.300781 C 52.421875 1.0625 52.167969 0.800781 51.773438 0.800781 Z M 42.648438 12.101562 C 42.308594 12.101562 41.957031 11.96875 41.691406 11.703125 L 38.128906 8.128906 C 37.878906 7.878906 37.730469 7.539062 37.730469 7.171875 L 37.730469 2.683594 C 37.730469 1.34375 38.820312 0.269531 40.144531 0.269531 L 51.785156 0.269531 C 52.347656 0.269531 52.816406 0.59375 53.023438 1.09375 C 53.230469 1.609375 53.125 2.167969 52.730469 2.566406 L 43.605469 11.703125 C 43.339844 11.96875 43 12.101562 42.648438 12.101562 " fill-opacity="1" fill-rule="nonzero"/><path fill="#dea54b" d="M 35.65625 11.042969 L 33.359375 13.339844 C 33.300781 13.398438 33.300781 13.472656 33.359375 13.53125 L 36.113281 16.28125 L 36.113281 11.234375 C 36.113281 11.070312 35.980469 11 35.949219 10.984375 C 35.90625 10.96875 35.773438 10.925781 35.65625 11.042969 M 36.113281 16.828125 C 35.980469 16.828125 35.832031 16.769531 35.730469 16.664062 L 32.976562 13.914062 C 32.714844 13.648438 32.714844 13.222656 32.976562 12.957031 L 35.273438 10.660156 C 35.507812 10.425781 35.847656 10.367188 36.15625 10.484375 C 36.464844 10.617188 36.65625 10.894531 36.65625 11.234375 L 36.65625 16.28125 C 36.65625 16.503906 36.523438 16.695312 36.320312 16.78125 C 36.246094 16.8125 36.1875 16.828125 36.113281 16.828125 " fill-opacity="1" fill-rule="nonzero"/><path fill="#dea54b" d="M 38.542969 10.96875 C 38.496094 10.96875 38.453125 10.984375 38.4375 10.984375 C 38.394531 11 38.277344 11.070312 38.277344 11.234375 L 38.277344 16.28125 L 41.027344 13.53125 C 41.058594 13.5 41.074219 13.457031 41.074219 13.441406 C 41.074219 13.425781 41.074219 13.382812 41.027344 13.351562 L 38.71875 11.042969 C 38.660156 10.984375 38.585938 10.96875 38.542969 10.96875 M 38.261719 16.828125 C 38.1875 16.828125 38.128906 16.8125 38.054688 16.78125 C 37.847656 16.695312 37.71875 16.503906 37.71875 16.28125 L 37.71875 11.234375 C 37.71875 10.894531 37.910156 10.617188 38.21875 10.484375 C 38.527344 10.351562 38.863281 10.425781 39.101562 10.660156 L 41.394531 12.957031 C 41.527344 13.089844 41.585938 13.25 41.585938 13.425781 C 41.585938 13.601562 41.515625 13.78125 41.394531 13.898438 L 38.644531 16.648438 C 38.542969 16.769531 38.410156 16.828125 38.261719 16.828125 " fill-opacity="1" fill-rule="nonzero"/><path fill="#dea54b" d="M 22.777344 0.800781 C 22.335938 0.800781 22.070312 1.078125 21.953125 1.34375 C 21.851562 1.609375 21.835938 2.003906 22.144531 2.316406 L 31.152344 11.320312 C 31.460938 11.632812 31.976562 11.632812 32.285156 11.320312 L 35.847656 7.761719 C 35.996094 7.613281 36.082031 7.40625 36.082031 7.1875 L 36.082031 2.683594 C 36.082031 1.636719 35.246094 0.800781 34.199219 0.800781 Z M 31.726562 12.101562 C 31.386719 12.101562 31.035156 11.96875 30.769531 11.703125 L 21.777344 2.699219 C 21.367188 2.285156 21.246094 1.683594 21.46875 1.136719 C 21.6875 0.59375 22.203125 0.253906 22.777344 0.253906 L 34.214844 0.253906 C 35.554688 0.253906 36.628906 1.34375 36.628906 2.667969 L 36.628906 7.171875 C 36.628906 7.523438 36.496094 7.863281 36.230469 8.128906 L 32.683594 11.703125 C 32.417969 11.96875 32.066406 12.101562 31.726562 12.101562 " fill-opacity="1" fill-rule="nonzero"/></svg>