<svg xmlns="http://www.w3.org/2000/svg" xmlns:xlink="http://www.w3.org/1999/xlink" width="103" zoomAndPan="magnify" viewBox="0 0 77.25 30.000001" height="40" preserveAspectRatio="xMidYMid meet" version="1.0"><path fill="#dea54b" d="M 22.085938 19.824219 L 22.085938 22.449219 L 22.808594 22.449219 C 23.796875 22.449219 24.355469 22.125 24.355469 21.121094 C 24.355469 20.179688 23.8125 19.824219 22.808594 19.824219 Z M 21.363281 19.589844 L 22.808594 19.589844 C 24.253906 19.589844 25.109375 20.0625 25.109375 21.136719 C 25.109375 22.273438 24.28125 22.699219 22.792969 22.699219 L 22.070312 22.699219 L 22.070312 24.867188 L 21.363281 24.867188 Z M 21.363281 19.589844 " fill-opacity="1" fill-rule="nonzero"/><path fill="#dea54b" d="M 28.453125 19.589844 L 31.796875 19.589844 L 31.796875 19.824219 L 29.175781 19.824219 L 29.175781 22.035156 L 31.253906 22.035156 L 31.253906 22.273438 L 29.175781 22.273438 L 29.175781 24.617188 L 31.886719 24.617188 L 31.886719 24.867188 L 28.453125 24.867188 Z M 28.453125 19.589844 " fill-opacity="1" fill-rule="nonzero"/><path fill="#dea54b" d="M 35.953125 22.980469 L 38.195312 22.980469 L 37.089844 20.148438 Z M 38.296875 23.257812 L 35.851562 23.257812 L 35.21875 24.867188 L 34.894531 24.867188 L 37.03125 19.605469 L 37.605469 19.605469 L 39.667969 24.867188 L 38.914062 24.867188 Z M 38.296875 23.257812 " fill-opacity="1" fill-rule="nonzero"/><path fill="#dea54b" d="M 45.003906 24.644531 C 45.652344 24.644531 46.046875 24.46875 46.503906 24.144531 L 46.636719 24.277344 C 46.09375 24.761719 45.519531 24.925781 44.765625 24.925781 C 43.234375 24.925781 42.113281 23.921875 42.113281 22.226562 C 42.113281 20.535156 43.234375 19.515625 44.765625 19.515625 C 45.546875 19.515625 46.0625 19.707031 46.5625 20.179688 L 46.429688 20.296875 C 45.960938 19.945312 45.5625 19.796875 44.988281 19.796875 C 43.765625 19.796875 42.878906 20.679688 42.878906 22.214844 C 42.863281 23.761719 43.765625 24.644531 45.003906 24.644531 " fill-opacity="1" fill-rule="nonzero"/><path fill="#dea54b" d="M 49.761719 19.589844 L 49.761719 24.867188 L 53.195312 24.867188 L 53.195312 24.617188 L 50.484375 24.617188 L 50.484375 22.273438 L 52.578125 22.273438 L 52.578125 22.035156 L 50.484375 22.035156 L 50.484375 19.824219 L 53.105469 19.824219 L 53.105469 19.589844 Z M 49.761719 19.589844 " fill-opacity="1" fill-rule="nonzero"/><path fill="#003a47" d="M 21.804688 26.664062 L 21.804688 27.769531 L 22.027344 27.769531 C 22.410156 27.769531 22.648438 27.636719 22.648438 27.207031 C 22.648438 26.8125 22.410156 26.664062 22.027344 26.664062 Z M 21.363281 26.546875 L 22.011719 26.546875 C 22.675781 26.546875 23.117188 26.753906 23.117188 27.222656 C 23.117188 27.726562 22.71875 27.902344 22.011719 27.902344 L 21.804688 27.902344 L 21.804688 28.785156 L 21.363281 28.785156 Z M 21.363281 26.546875 " fill-opacity="1" fill-rule="nonzero"/><path fill="#003a47" d="M 24.136719 26.546875 L 24.136719 28.769531 L 25.667969 28.769531 L 25.667969 28.652344 L 24.578125 28.652344 L 24.578125 27.695312 L 25.445312 27.695312 L 25.445312 27.5625 L 24.578125 27.5625 L 24.578125 26.664062 L 25.625 26.664062 L 25.625 26.546875 Z M 24.136719 26.546875 " fill-opacity="1" fill-rule="nonzero"/><path fill="#003a47" d="M 26.890625 26.546875 L 26.890625 28.769531 L 28.347656 28.769531 L 28.347656 28.652344 L 27.332031 28.652344 L 27.332031 26.546875 Z M 26.890625 26.546875 " fill-opacity="1" fill-rule="nonzero"/><path fill="#003a47" d="M 30.914062 26.546875 L 30.265625 28.550781 L 29.660156 26.546875 L 29.203125 26.546875 L 29.898438 28.769531 L 30.355469 28.769531 L 31.089844 26.546875 Z M 30.914062 26.546875 " fill-opacity="1" fill-rule="nonzero"/><path fill="#003a47" d="M 32.3125 26.546875 L 32.753906 26.546875 L 32.753906 28.785156 L 32.3125 28.785156 Z M 32.3125 26.546875 " fill-opacity="1" fill-rule="nonzero"/><path fill="#003a47" d="M 35.320312 28.667969 C 35.554688 28.667969 35.71875 28.609375 35.894531 28.492188 L 35.953125 28.550781 C 35.71875 28.742188 35.46875 28.816406 35.15625 28.816406 C 34.480469 28.816406 33.980469 28.386719 33.980469 27.664062 C 33.980469 26.945312 34.464844 26.515625 35.171875 26.515625 C 35.527344 26.515625 35.734375 26.605469 35.925781 26.78125 L 35.867188 26.839844 C 35.671875 26.707031 35.511719 26.664062 35.304688 26.664062 C 34.804688 26.664062 34.449219 27.015625 34.449219 27.664062 C 34.449219 28.300781 34.804688 28.667969 35.320312 28.667969 " fill-opacity="1" fill-rule="nonzero"/><path fill="#003a47" d="M 40.09375 26.546875 L 40.09375 27.5625 L 39.046875 27.5625 L 39.046875 26.546875 L 38.605469 26.546875 L 38.605469 28.769531 L 39.046875 28.769531 L 39.046875 27.695312 L 40.09375 27.695312 L 40.09375 28.769531 L 40.550781 28.769531 L 40.550781 26.546875 Z M 40.09375 26.546875 " fill-opacity="1" fill-rule="nonzero"/><path fill="#003a47" d="M 41.597656 26.546875 L 41.597656 28.769531 L 43.128906 28.769531 L 43.128906 28.652344 L 42.039062 28.652344 L 42.039062 27.695312 L 42.910156 27.695312 L 42.910156 27.5625 L 42.039062 27.5625 L 42.039062 26.664062 L 43.101562 26.664062 L 43.101562 26.546875 Z M 41.597656 26.546875 " fill-opacity="1" fill-rule="nonzero"/><path fill="#003a47" d="M 44.75 26.78125 L 45.195312 27.976562 L 44.265625 27.976562 Z M 44.691406 26.546875 L 43.792969 28.785156 L 43.957031 28.785156 L 44.222656 28.109375 L 45.238281 28.109375 L 45.488281 28.785156 L 45.945312 28.785156 L 45.105469 26.546875 Z M 44.691406 26.546875 " fill-opacity="1" fill-rule="nonzero"/><path fill="#003a47" d="M 46.785156 26.546875 L 46.785156 28.769531 L 48.242188 28.769531 L 48.242188 28.652344 L 47.226562 28.652344 L 47.226562 26.546875 Z M 46.785156 26.546875 " fill-opacity="1" fill-rule="nonzero"/><path fill="#003a47" d="M 48.582031 26.546875 L 48.582031 26.664062 L 49.261719 26.664062 L 49.261719 28.769531 L 49.703125 28.769531 L 49.703125 26.664062 L 50.335938 26.664062 L 50.335938 26.546875 Z M 48.582031 26.546875 " fill-opacity="1" fill-rule="nonzero"/><path fill="#003a47" d="M 52.753906 26.546875 L 52.753906 27.5625 L 51.707031 27.5625 L 51.707031 26.546875 L 51.25 26.546875 L 51.25 28.769531 L 51.707031 28.769531 L 51.707031 27.695312 L 52.753906 27.695312 L 52.753906 28.769531 L 53.195312 28.769531 L 53.195312 26.546875 Z M 52.753906 26.546875 " fill-opacity="1" fill-rule="nonzero"/><path fill="#dea54b" d="M 40.199219 0.832031 C 39.167969 0.832031 38.3125 1.671875 38.3125 2.714844 L 38.3125 7.226562 C 38.3125 7.445312 38.398438 7.636719 38.546875 7.800781 L 42.113281 11.367188 C 42.421875 11.675781 42.9375 11.675781 43.25 11.367188 L 52.398438 2.214844 C 52.679688 1.9375 52.679688 1.582031 52.578125 1.332031 C 52.472656 1.09375 52.222656 0.832031 51.824219 0.832031 Z M 42.6875 12.148438 C 42.347656 12.148438 41.996094 12.015625 41.730469 11.75 L 38.164062 8.167969 C 37.914062 7.917969 37.765625 7.578125 37.765625 7.210938 L 37.765625 2.714844 C 37.765625 1.375 38.855469 0.300781 40.183594 0.300781 L 51.839844 0.300781 C 52.398438 0.300781 52.871094 0.625 53.078125 1.125 C 53.285156 1.640625 53.179688 2.199219 52.78125 2.597656 L 43.644531 11.75 C 43.382812 12.015625 43.042969 12.148438 42.6875 12.148438 " fill-opacity="1" fill-rule="nonzero"/><path fill="#dea54b" d="M 35.6875 11.085938 L 33.390625 13.386719 C 33.332031 13.445312 33.332031 13.519531 33.390625 13.578125 L 36.144531 16.332031 L 36.144531 11.277344 C 36.144531 11.117188 36.011719 11.042969 35.984375 11.027344 C 35.9375 11.011719 35.804688 10.96875 35.6875 11.085938 M 36.144531 16.878906 C 36.011719 16.878906 35.867188 16.820312 35.761719 16.714844 L 33.007812 13.960938 C 32.742188 13.695312 32.742188 13.269531 33.007812 13.003906 L 35.304688 10.703125 C 35.542969 10.46875 35.878906 10.410156 36.191406 10.527344 C 36.5 10.660156 36.691406 10.941406 36.691406 11.277344 L 36.691406 16.332031 C 36.691406 16.554688 36.558594 16.746094 36.351562 16.835938 C 36.277344 16.863281 36.21875 16.878906 36.144531 16.878906 " fill-opacity="1" fill-rule="nonzero"/><path fill="#dea54b" d="M 38.578125 11.011719 C 38.53125 11.011719 38.488281 11.027344 38.472656 11.027344 C 38.429688 11.042969 38.3125 11.117188 38.3125 11.277344 L 38.3125 16.332031 L 41.066406 13.578125 C 41.097656 13.546875 41.113281 13.503906 41.113281 13.488281 C 41.113281 13.472656 41.113281 13.429688 41.066406 13.402344 L 38.753906 11.085938 C 38.695312 11.027344 38.621094 11.011719 38.578125 11.011719 M 38.296875 16.878906 C 38.222656 16.878906 38.164062 16.863281 38.089844 16.835938 C 37.882812 16.746094 37.75 16.554688 37.75 16.332031 L 37.75 11.277344 C 37.75 10.941406 37.941406 10.660156 38.253906 10.527344 C 38.5625 10.394531 38.902344 10.46875 39.136719 10.703125 L 41.4375 13.003906 C 41.566406 13.136719 41.628906 13.296875 41.628906 13.472656 C 41.628906 13.652344 41.554688 13.828125 41.4375 13.945312 L 38.679688 16.703125 C 38.578125 16.820312 38.445312 16.878906 38.296875 16.878906 " fill-opacity="1" fill-rule="nonzero"/><path fill="#dea54b" d="M 22.792969 0.832031 C 22.351562 0.832031 22.085938 1.109375 21.96875 1.375 C 21.867188 1.640625 21.851562 2.039062 22.160156 2.347656 L 31.179688 11.367188 C 31.488281 11.675781 32.003906 11.675781 32.3125 11.367188 L 35.878906 7.800781 C 36.027344 7.652344 36.117188 7.445312 36.117188 7.226562 L 36.117188 2.714844 C 36.117188 1.671875 35.277344 0.832031 34.230469 0.832031 Z M 31.753906 12.148438 C 31.414062 12.148438 31.0625 12.015625 30.796875 11.75 L 21.792969 2.730469 C 21.378906 2.320312 21.261719 1.714844 21.480469 1.167969 C 21.703125 0.625 22.21875 0.285156 22.792969 0.285156 L 34.246094 0.285156 C 35.585938 0.285156 36.660156 1.375 36.660156 2.703125 L 36.660156 7.210938 C 36.660156 7.566406 36.527344 7.902344 36.261719 8.167969 L 32.710938 11.75 C 32.445312 12.015625 32.09375 12.148438 31.753906 12.148438 " fill-opacity="1" fill-rule="nonzero"/></svg>