<svg xmlns="http://www.w3.org/2000/svg" xmlns:xlink="http://www.w3.org/1999/xlink" width="85" zoomAndPan="magnify" viewBox="0 0 63.75 63.749997" height="85" preserveAspectRatio="xMidYMid meet" version="1.0"><defs><clipPath id="ae5d8e8307"><path d="M 0.597656 1.050781 L 62.960938 1.050781 L 62.960938 62.453125 L 0.597656 62.453125 Z M 0.597656 1.050781 " clip-rule="nonzero"/></clipPath><clipPath id="bf700fd5ab"><path d="M 9.5625 1.050781 L 53.9375 1.050781 C 58.890625 1.050781 62.902344 5.0625 62.902344 10.015625 L 62.902344 53.488281 C 62.902344 58.4375 58.890625 62.453125 53.9375 62.453125 L 9.5625 62.453125 C 4.613281 62.453125 0.597656 58.4375 0.597656 53.488281 L 0.597656 10.015625 C 0.597656 5.0625 4.613281 1.050781 9.5625 1.050781 Z M 9.5625 1.050781 " clip-rule="nonzero"/></clipPath><clipPath id="368e95202e"><path d="M 13.96875 13.96875 L 49.828125 13.96875 L 49.828125 49.828125 L 13.96875 49.828125 Z M 13.96875 13.96875 " clip-rule="nonzero"/></clipPath></defs><g clip-path="url(#ae5d8e8307)"><g clip-path="url(#bf700fd5ab)"><path fill="#000319" d="M 0.597656 1.050781 L 62.960938 1.050781 L 62.960938 62.453125 L 0.597656 62.453125 Z M 0.597656 1.050781 " fill-opacity="1" fill-rule="nonzero"/></g></g><path fill="#e2e8f0" d="M 26.011719 31.175781 L 24.867188 31.175781 C 24.234375 31.175781 23.71875 31.6875 23.71875 32.320312 L 23.71875 34.617188 C 23.71875 35.246094 24.234375 35.761719 24.867188 35.761719 L 26.011719 35.761719 C 27.277344 35.761719 28.308594 34.734375 28.308594 33.46875 C 28.308594 32.203125 27.277344 31.175781 26.011719 31.175781 Z M 26.011719 34.617188 L 24.867188 34.617188 L 24.867188 32.320312 L 26.011719 32.320312 C 26.644531 32.320312 27.160156 32.835938 27.160156 33.46875 C 27.160156 34.101562 26.644531 34.617188 26.011719 34.617188 Z M 26.011719 34.617188 " fill-opacity="1" fill-rule="nonzero"/><path fill="#e2e8f0" d="M 32.894531 34.523438 C 32.894531 34.574219 32.851562 34.617188 32.800781 34.617188 C 32.761719 34.617188 32.726562 34.589844 32.714844 34.550781 L 31.871094 32.023438 C 31.703125 31.515625 31.230469 31.175781 30.695312 31.175781 C 30.011719 31.175781 29.453125 31.730469 29.453125 32.414062 L 29.453125 35.761719 L 30.601562 35.761719 L 30.601562 32.414062 C 30.601562 32.363281 30.644531 32.320312 30.695312 32.320312 C 30.734375 32.320312 30.769531 32.347656 30.78125 32.386719 L 31.625 34.914062 C 31.792969 35.421875 32.265625 35.761719 32.800781 35.761719 C 33.484375 35.761719 34.042969 35.207031 34.042969 34.523438 L 34.042969 31.175781 L 32.894531 31.175781 Z M 32.894531 34.523438 " fill-opacity="1" fill-rule="nonzero"/><path fill="#e2e8f0" d="M 35.1875 32.457031 C 35.1875 32.945312 35.460938 33.386719 35.898438 33.605469 L 37.40625 34.359375 C 37.453125 34.382812 37.484375 34.429688 37.484375 34.480469 C 37.484375 34.554688 37.421875 34.617188 37.347656 34.617188 L 35.1875 34.617188 L 35.1875 35.761719 L 37.347656 35.761719 C 38.054688 35.761719 38.628906 35.1875 38.628906 34.480469 C 38.628906 33.992188 38.359375 33.550781 37.921875 33.332031 L 36.410156 32.578125 C 36.363281 32.554688 36.335938 32.507812 36.335938 32.457031 C 36.335938 32.382812 36.398438 32.320312 36.472656 32.320312 L 38.628906 32.320312 L 38.628906 31.175781 L 36.472656 31.175781 C 35.765625 31.175781 35.1875 31.75 35.1875 32.457031 Z M 35.1875 32.457031 " fill-opacity="1" fill-rule="nonzero"/><path fill="#e2e8f0" d="M 47.230469 16.835938 C 47.230469 16.996094 47.175781 17.132812 47.0625 17.242188 C 46.953125 17.355469 46.816406 17.410156 46.660156 17.410156 C 46.5 17.410156 46.363281 17.355469 46.253906 17.242188 C 46.140625 17.132812 46.085938 16.996094 46.085938 16.835938 C 46.085938 16.679688 46.140625 16.542969 46.253906 16.433594 C 46.363281 16.320312 46.5 16.265625 46.660156 16.265625 C 46.816406 16.265625 46.953125 16.320312 47.0625 16.433594 C 47.175781 16.542969 47.230469 16.679688 47.230469 16.835938 Z M 47.230469 16.835938 " fill-opacity="1" fill-rule="nonzero"/><path fill="#e2e8f0" d="M 38.628906 20.851562 L 39.777344 20.851562 L 39.777344 22 L 38.628906 22 Z M 38.628906 20.851562 " fill-opacity="1" fill-rule="nonzero"/><path fill="#e2e8f0" d="M 40.925781 20.851562 L 42.070312 20.851562 L 42.070312 22 L 40.925781 22 Z M 40.925781 20.851562 " fill-opacity="1" fill-rule="nonzero"/><path fill="#e2e8f0" d="M 43.21875 20.851562 L 44.363281 20.851562 L 44.363281 22 L 43.21875 22 Z M 43.21875 20.851562 " fill-opacity="1" fill-rule="nonzero"/><g clip-path="url(#368e95202e)"><path fill="#e2e8f0" d="M 47.804688 37.703125 C 47.804688 37.648438 47.820312 37.59375 47.84375 37.542969 L 48.503906 36.222656 L 46.773438 34.492188 L 45.511719 35.121094 L 45.511719 24.867188 C 45.511719 23.917969 44.738281 23.144531 43.792969 23.144531 L 32.320312 23.144531 C 32.320312 22.757812 32.296875 22.375 32.25 22 L 37.484375 22 L 37.484375 20.851562 L 32.03125 20.851562 C 31.929688 20.457031 31.800781 20.074219 31.652344 19.703125 L 35.476562 19.703125 C 35.835938 19.703125 36.179688 19.535156 36.394531 19.246094 L 37.769531 17.410156 L 43.847656 17.410156 C 44.117188 18.71875 45.273438 19.703125 46.660156 19.703125 C 48.238281 19.703125 49.527344 18.417969 49.527344 16.835938 C 49.527344 15.257812 48.238281 13.96875 46.660156 13.96875 C 45.273438 13.96875 44.117188 14.957031 43.847656 16.265625 L 37.769531 16.265625 C 37.410156 16.265625 37.066406 16.4375 36.851562 16.722656 L 35.476562 18.558594 L 31.089844 18.558594 C 29.5 15.816406 26.535156 13.96875 23.144531 13.96875 C 18.085938 13.96875 13.96875 18.085938 13.96875 23.144531 C 13.96875 26.207031 15.464844 29.019531 17.984375 30.734375 L 17.984375 42.070312 C 17.984375 43.019531 18.757812 43.792969 19.703125 43.792969 L 27.734375 43.792969 L 27.734375 46.085938 L 24.292969 46.085938 C 23.027344 46.085938 22 47.113281 22 48.378906 C 22 49.011719 22.511719 49.527344 23.144531 49.527344 L 40.351562 49.527344 C 40.984375 49.527344 41.496094 49.011719 41.496094 48.378906 C 41.496094 47.113281 40.46875 46.085938 39.203125 46.085938 L 35.761719 46.085938 L 35.761719 43.792969 L 38.390625 43.792969 L 39.664062 45.0625 L 40.984375 44.402344 C 41.035156 44.378906 41.089844 44.363281 41.144531 44.363281 C 41.339844 44.363281 41.496094 44.523438 41.496094 44.71875 L 41.496094 46.085938 L 44.9375 46.085938 L 44.9375 44.71875 C 44.9375 44.523438 45.097656 44.363281 45.292969 44.363281 C 45.347656 44.363281 45.402344 44.378906 45.449219 44.402344 L 46.773438 45.0625 L 48.503906 43.332031 L 47.84375 42.011719 C 47.820312 41.960938 47.804688 41.90625 47.804688 41.851562 C 47.804688 41.65625 47.964844 41.496094 48.160156 41.496094 L 49.527344 41.496094 L 49.527344 38.054688 L 48.160156 38.054688 C 47.964844 38.054688 47.804688 37.898438 47.804688 37.703125 Z M 46.660156 15.117188 C 47.605469 15.117188 48.378906 15.890625 48.378906 16.835938 C 48.378906 17.785156 47.605469 18.558594 46.660156 18.558594 C 45.710938 18.558594 44.9375 17.785156 44.9375 16.835938 C 44.9375 15.890625 45.710938 15.117188 46.660156 15.117188 Z M 27.734375 23.144531 C 27.734375 22.371094 27.652344 21.601562 27.496094 20.851562 L 30.839844 20.851562 C 31.058594 21.578125 31.175781 22.347656 31.175781 23.144531 Z M 15.117188 23.144531 C 15.117188 22.347656 15.234375 21.578125 15.453125 20.851562 L 18.792969 20.851562 C 18.636719 21.601562 18.558594 22.371094 18.558594 23.144531 C 18.558594 23.289062 18.5625 23.433594 18.566406 23.578125 C 18.210938 23.894531 17.984375 24.355469 17.984375 24.867188 L 17.984375 25.441406 L 15.449219 25.441406 C 15.230469 24.707031 15.117188 23.9375 15.117188 23.144531 Z M 19.703125 23.144531 C 19.703125 22.367188 19.796875 21.597656 19.96875 20.851562 L 26.324219 20.851562 C 26.496094 21.597656 26.585938 22.367188 26.585938 23.144531 Z M 23.144531 15.414062 L 24.085938 16.488281 C 24.917969 17.441406 25.558594 18.535156 25.984375 19.703125 L 20.308594 19.703125 C 20.734375 18.535156 21.371094 17.441406 22.207031 16.488281 Z M 30.398438 19.703125 L 27.195312 19.703125 C 26.730469 18.253906 25.96875 16.898438 24.949219 15.734375 L 24.511719 15.234375 C 27.117188 15.683594 29.296875 17.390625 30.398438 19.703125 Z M 21.78125 15.234375 L 21.34375 15.734375 C 20.324219 16.898438 19.5625 18.253906 19.097656 19.703125 L 15.894531 19.703125 C 16.996094 17.390625 19.175781 15.683594 21.78125 15.234375 Z M 15.886719 26.585938 L 17.984375 26.585938 L 17.984375 29.296875 C 17.085938 28.546875 16.375 27.621094 15.886719 26.585938 Z M 40.351562 48.378906 L 23.144531 48.378906 C 23.144531 47.746094 23.660156 47.230469 24.292969 47.230469 L 39.203125 47.230469 C 39.835938 47.230469 40.351562 47.746094 40.351562 48.378906 Z M 34.617188 46.085938 L 28.878906 46.085938 L 28.878906 43.792969 L 34.617188 43.792969 Z M 38.59375 42.011719 L 38.277344 42.644531 L 34.617188 42.644531 L 34.617188 41.496094 L 33.46875 41.496094 L 33.46875 42.644531 L 32.320312 42.644531 L 32.320312 41.496094 L 31.175781 41.496094 L 31.175781 42.644531 L 30.027344 42.644531 L 30.027344 41.496094 L 28.878906 41.496094 L 28.878906 42.644531 L 19.703125 42.644531 C 19.390625 42.644531 19.132812 42.386719 19.132812 42.070312 L 19.132812 24.867188 C 19.132812 24.550781 19.390625 24.292969 19.703125 24.292969 L 43.792969 24.292969 C 44.109375 24.292969 44.363281 24.550781 44.363281 24.867188 L 44.363281 33.46875 L 43.21875 33.46875 L 43.21875 26.585938 C 43.21875 25.953125 42.703125 25.441406 42.070312 25.441406 L 21.425781 25.441406 C 20.792969 25.441406 20.277344 25.953125 20.277344 26.585938 L 20.277344 39.203125 C 20.277344 39.835938 20.792969 40.351562 21.425781 40.351562 L 36.910156 40.351562 L 36.910156 41.496094 L 38.277344 41.496094 C 38.472656 41.496094 38.628906 41.65625 38.628906 41.851562 C 38.628906 41.90625 38.617188 41.960938 38.59375 42.011719 Z M 38.59375 37.542969 C 38.617188 37.59375 38.628906 37.648438 38.628906 37.703125 C 38.628906 37.898438 38.472656 38.054688 38.277344 38.054688 L 36.910156 38.054688 L 36.910156 39.203125 L 21.425781 39.203125 L 21.425781 26.585938 L 42.070312 26.585938 L 42.070312 33.46875 L 41.496094 33.46875 L 41.496094 34.835938 C 41.496094 35.03125 41.339844 35.1875 41.144531 35.1875 C 41.089844 35.1875 41.035156 35.175781 40.984375 35.152344 L 39.664062 34.492188 L 37.933594 36.222656 Z M 48.378906 40.351562 L 48.160156 40.351562 C 47.332031 40.351562 46.660156 41.023438 46.660156 41.851562 C 46.660156 42.082031 46.714844 42.316406 46.816406 42.523438 L 47.109375 43.105469 L 46.546875 43.667969 L 45.964844 43.375 C 45.757812 43.273438 45.523438 43.21875 45.292969 43.21875 C 44.464844 43.21875 43.792969 43.890625 43.792969 44.71875 L 43.792969 44.9375 L 42.644531 44.9375 L 42.644531 44.71875 C 42.644531 43.890625 41.972656 43.21875 41.144531 43.21875 C 40.910156 43.21875 40.679688 43.273438 40.472656 43.375 L 39.890625 43.667969 L 39.328125 43.105469 L 39.617188 42.523438 C 39.722656 42.316406 39.777344 42.082031 39.777344 41.851562 C 39.777344 41.023438 39.101562 40.351562 38.277344 40.351562 L 38.054688 40.351562 L 38.054688 39.203125 L 38.277344 39.203125 C 39.101562 39.203125 39.777344 38.53125 39.777344 37.703125 C 39.777344 37.46875 39.722656 37.238281 39.617188 37.03125 L 39.328125 36.449219 L 39.890625 35.886719 L 40.472656 36.175781 C 40.679688 36.28125 40.910156 36.335938 41.144531 36.335938 C 41.972656 36.335938 42.644531 35.664062 42.644531 34.835938 L 42.644531 34.617188 L 43.792969 34.617188 L 43.792969 34.835938 C 43.792969 35.664062 44.464844 36.335938 45.292969 36.335938 C 45.523438 36.335938 45.757812 36.28125 45.964844 36.175781 L 46.546875 35.886719 L 47.109375 36.449219 L 46.816406 37.03125 C 46.714844 37.238281 46.660156 37.46875 46.660156 37.703125 C 46.660156 38.53125 47.332031 39.203125 48.160156 39.203125 L 48.378906 39.203125 Z M 48.378906 40.351562 " fill-opacity="1" fill-rule="nonzero"/></g><path fill="#e2e8f0" d="M 43.21875 36.910156 C 41.636719 36.910156 40.351562 38.195312 40.351562 39.777344 C 40.351562 41.359375 41.636719 42.644531 43.21875 42.644531 C 44.800781 42.644531 46.085938 41.359375 46.085938 39.777344 C 46.085938 38.195312 44.800781 36.910156 43.21875 36.910156 Z M 43.21875 41.496094 C 42.269531 41.496094 41.496094 40.726562 41.496094 39.777344 C 41.496094 38.828125 42.269531 38.054688 43.21875 38.054688 C 44.167969 38.054688 44.9375 38.828125 44.9375 39.777344 C 44.9375 40.726562 44.167969 41.496094 43.21875 41.496094 Z M 43.21875 41.496094 " fill-opacity="1" fill-rule="nonzero"/></svg>