<svg xmlns="http://www.w3.org/2000/svg" xmlns:xlink="http://www.w3.org/1999/xlink" width="85" zoomAndPan="magnify" viewBox="0 0 63.75 63.749997" height="85" preserveAspectRatio="xMidYMid meet" version="1.0"><defs><clipPath id="b68c6e6aaa"><path d="M 0.597656 1.050781 L 62.960938 1.050781 L 62.960938 62.453125 L 0.597656 62.453125 Z M 0.597656 1.050781 " clip-rule="nonzero"/></clipPath><clipPath id="df5336fb48"><path d="M 9.5625 1.050781 L 53.9375 1.050781 C 58.890625 1.050781 62.902344 5.0625 62.902344 10.015625 L 62.902344 53.488281 C 62.902344 58.4375 58.890625 62.453125 53.9375 62.453125 L 9.5625 62.453125 C 4.613281 62.453125 0.597656 58.4375 0.597656 53.488281 L 0.597656 10.015625 C 0.597656 5.0625 4.613281 1.050781 9.5625 1.050781 Z M 9.5625 1.050781 " clip-rule="nonzero"/></clipPath><clipPath id="01e43d0d45"><path d="M 13.75 16.902344 L 43 16.902344 L 43 45 L 13.75 45 Z M 13.75 16.902344 " clip-rule="nonzero"/></clipPath><clipPath id="d5f1dd63ed"><path d="M 37 26 L 49.609375 26 L 49.609375 46.785156 L 37 46.785156 Z M 37 26 " clip-rule="nonzero"/></clipPath></defs><g clip-path="url(#b68c6e6aaa)"><g clip-path="url(#df5336fb48)"><path fill="#5e17eb" d="M 0.597656 1.050781 L 62.960938 1.050781 L 62.960938 62.453125 L 0.597656 62.453125 Z M 0.597656 1.050781 " fill-opacity="1" fill-rule="nonzero"/></g></g><g clip-path="url(#01e43d0d45)"><path fill="#e2e8f0" d="M 42.40625 19.191406 L 41.222656 19.191406 L 41.222656 18.613281 C 41.222656 18.277344 40.953125 18.007812 40.617188 18.007812 L 15.765625 18.007812 C 15.425781 18.007812 15.160156 18.277344 15.160156 18.613281 L 15.160156 33.40625 L 29.375 33.40625 L 29.375 34.59375 L 15.160156 34.59375 L 15.160156 37.542969 C 15.160156 37.875 15.429688 38.148438 15.765625 38.148438 L 29.375 38.148438 L 29.375 39.332031 L 26.761719 39.332031 L 25.871094 42.886719 L 29.375 42.886719 L 29.375 44.070312 L 22.859375 44.070312 C 22.527344 44.070312 22.269531 43.804688 22.269531 43.476562 C 22.269531 43.164062 22.535156 42.886719 22.867188 42.886719 L 24.402344 42.886719 C 24.539062 42.886719 24.660156 42.78125 24.691406 42.65625 L 25.527344 39.332031 L 15.765625 39.332031 C 14.777344 39.332031 13.976562 38.527344 13.976562 37.5625 L 13.976562 18.59375 C 13.976562 17.613281 14.765625 16.824219 15.765625 16.824219 L 40.617188 16.824219 C 41.605469 16.824219 42.40625 17.625 42.40625 18.59375 Z M 28.191406 37.554688 C 27.539062 37.554688 27.007812 37.023438 27.007812 36.371094 C 27.007812 35.714844 27.539062 35.183594 28.191406 35.183594 C 28.84375 35.183594 29.375 35.714844 29.375 36.371094 C 29.375 37.023438 28.84375 37.554688 28.191406 37.554688 Z M 28.191406 37.554688 " fill-opacity="1" fill-rule="evenodd"/></g><path fill="#e2e8f0" d="M 47.144531 25.113281 L 45.960938 25.113281 L 45.960938 23.929688 L 31.746094 23.929688 L 31.746094 39.332031 L 36.484375 39.332031 L 36.484375 40.515625 L 31.746094 40.515625 L 31.746094 43.484375 C 31.746094 43.804688 32.011719 44.070312 32.335938 44.070312 L 36.484375 44.070312 L 36.484375 45.253906 L 32.34375 45.253906 C 31.355469 45.253906 30.5625 44.464844 30.5625 43.472656 L 30.5625 22.160156 C 30.5625 21.171875 31.351562 20.375 32.34375 20.375 L 45.363281 20.375 C 46.351562 20.375 47.144531 21.167969 47.144531 22.160156 Z M 31.746094 22.148438 L 31.746094 22.746094 L 45.960938 22.746094 L 45.960938 22.148438 C 45.960938 21.828125 45.695312 21.5625 45.371094 21.5625 L 32.335938 21.5625 C 32.003906 21.5625 31.746094 21.828125 31.746094 22.148438 Z M 31.746094 22.148438 " fill-opacity="1" fill-rule="evenodd"/><g clip-path="url(#d5f1dd63ed)"><path fill="#e2e8f0" d="M 39.453125 26.300781 L 47.734375 26.300781 C 48.71875 26.300781 49.515625 27.089844 49.515625 28.082031 L 49.515625 44.65625 C 49.515625 45.644531 48.726562 46.441406 47.734375 46.441406 L 39.453125 46.441406 C 38.464844 46.441406 37.667969 45.648438 37.667969 44.65625 L 37.667969 28.082031 C 37.667969 27.097656 38.457031 26.300781 39.453125 26.300781 Z M 38.855469 40.515625 L 48.332031 40.515625 L 48.332031 29.855469 L 38.855469 29.855469 Z M 38.855469 28.070312 L 38.855469 28.667969 L 48.332031 28.667969 L 48.332031 28.070312 C 48.332031 27.75 48.066406 27.484375 47.738281 27.484375 L 39.445312 27.484375 C 39.113281 27.484375 38.855469 27.75 38.855469 28.070312 Z M 38.855469 44.667969 C 38.855469 44.988281 39.117188 45.253906 39.445312 45.253906 L 47.738281 45.253906 C 48.070312 45.253906 48.332031 44.988281 48.332031 44.667969 L 48.332031 41.699219 L 38.855469 41.699219 Z M 38.855469 44.667969 " fill-opacity="1" fill-rule="evenodd"/></g><path fill="#e2e8f0" d="M 44.777344 43.476562 C 44.777344 44.132812 44.246094 44.664062 43.59375 44.664062 C 42.9375 44.664062 42.40625 44.132812 42.40625 43.476562 C 42.40625 42.824219 42.9375 42.292969 43.59375 42.292969 C 44.246094 42.292969 44.777344 42.824219 44.777344 43.476562 Z M 44.777344 43.476562 " fill-opacity="1" fill-rule="evenodd"/></svg>