<svg xmlns="http://www.w3.org/2000/svg" xmlns:xlink="http://www.w3.org/1999/xlink" width="85" zoomAndPan="magnify" viewBox="0 0 63.75 63.749997" height="85" preserveAspectRatio="xMidYMid meet" version="1.0"><defs><clipPath id="150334daee"><path d="M 0.597656 1.050781 L 62.960938 1.050781 L 62.960938 62.453125 L 0.597656 62.453125 Z M 0.597656 1.050781 " clip-rule="nonzero"/></clipPath><clipPath id="3263ffdb50"><path d="M 9.5625 1.050781 L 53.9375 1.050781 C 58.890625 1.050781 62.902344 5.0625 62.902344 10.015625 L 62.902344 53.488281 C 62.902344 58.4375 58.890625 62.453125 53.9375 62.453125 L 9.5625 62.453125 C 4.613281 62.453125 0.597656 58.4375 0.597656 53.488281 L 0.597656 10.015625 C 0.597656 5.0625 4.613281 1.050781 9.5625 1.050781 Z M 9.5625 1.050781 " clip-rule="nonzero"/></clipPath><clipPath id="4974502dd6"><path d="M 13.960938 14 L 49.820312 14 L 49.820312 49.96875 L 13.960938 49.96875 Z M 13.960938 14 " clip-rule="nonzero"/></clipPath></defs><g clip-path="url(#150334daee)"><g clip-path="url(#3263ffdb50)"><path fill="#000319" d="M 0.597656 1.050781 L 62.960938 1.050781 L 62.960938 62.453125 L 0.597656 62.453125 Z M 0.597656 1.050781 " fill-opacity="1" fill-rule="nonzero"/></g></g><g clip-path="url(#4974502dd6)"><path fill="#e2e8f0" d="M 48.65625 44.53125 L 44.238281 39.558594 C 43.921875 39.203125 43.488281 39.007812 43.011719 38.96875 C 42.539062 38.929688 42.066406 39.085938 41.710938 39.402344 L 40.960938 40.070312 L 39.304688 38.179688 C 43.011719 34.589844 44.355469 29.261719 42.777344 24.332031 L 46.128906 20.976562 L 47.039062 21.882812 C 47.195312 22.042969 47.433594 22.082031 47.628906 22.042969 C 47.828125 21.964844 47.984375 21.804688 48.023438 21.570312 L 49.011719 15.414062 C 49.050781 15.21875 48.972656 15.019531 48.851562 14.902344 C 48.734375 14.78125 48.535156 14.703125 48.339844 14.742188 L 42.222656 15.730469 C 41.988281 15.769531 41.828125 15.925781 41.75 16.125 C 41.671875 16.320312 41.75 16.558594 41.910156 16.714844 L 42.816406 17.625 L 40.449219 19.949219 C 40.332031 19.792969 40.171875 19.636719 40.054688 19.476562 C 35.121094 13.914062 26.5625 13.363281 20.960938 18.292969 C 20.210938 18.964844 19.578125 19.675781 19.027344 20.425781 C 19.027344 20.425781 18.988281 20.464844 18.988281 20.464844 C 18.238281 21.488281 17.644531 22.632812 17.210938 23.816406 C 17.171875 23.976562 17.132812 24.054688 17.132812 24.132812 C 15.871094 27.882812 16.265625 32.101562 18.433594 35.613281 L 14.566406 35.613281 C 14.253906 35.574219 13.976562 35.851562 13.976562 36.167969 L 13.976562 47.921875 C 13.976562 48.238281 14.253906 48.515625 14.566406 48.515625 L 34.609375 48.515625 C 34.925781 48.515625 35.203125 48.238281 35.203125 47.921875 L 35.203125 40.859375 C 36.347656 40.386719 37.449219 39.71875 38.4375 38.929688 L 40.09375 40.820312 L 39.34375 41.492188 C 38.988281 41.808594 38.792969 42.242188 38.753906 42.714844 C 38.714844 43.1875 38.871094 43.664062 39.1875 44.015625 L 43.605469 48.988281 C 44.277344 49.738281 45.183594 50.132812 46.128906 50.132812 C 46.917969 50.132812 47.707031 49.855469 48.339844 49.304688 C 49.011719 48.710938 49.40625 47.882812 49.445312 47.015625 C 49.523438 46.070312 49.246094 45.199219 48.65625 44.53125 Z M 44.078125 17.230469 L 43.566406 16.714844 L 47.789062 16.046875 L 47.117188 20.265625 L 46.605469 19.753906 C 46.367188 19.515625 46.011719 19.515625 45.773438 19.753906 L 41.710938 23.738281 L 35.320312 30.128906 L 32.125 26.933594 C 31.886719 26.699219 31.53125 26.699219 31.296875 26.933594 L 26.285156 31.90625 L 18.394531 24.054688 C 18.671875 23.265625 19.066406 22.515625 19.5 21.84375 L 25.851562 28.195312 C 26.089844 28.433594 26.445312 28.433594 26.679688 28.195312 L 31.691406 23.226562 L 34.886719 26.421875 C 35.121094 26.65625 35.476562 26.65625 35.714844 26.421875 L 44.039062 18.136719 C 44.15625 18.019531 44.195312 17.859375 44.195312 17.703125 C 44.195312 17.542969 44.15625 17.347656 44.078125 17.230469 Z M 21.75 19.242188 C 26.839844 14.742188 34.648438 15.21875 39.148438 20.304688 C 39.304688 20.464844 39.460938 20.660156 39.582031 20.859375 L 35.320312 25.121094 L 32.125 21.921875 C 31.886719 21.6875 31.53125 21.6875 31.296875 21.921875 L 26.285156 26.894531 L 20.210938 20.859375 C 20.683594 20.265625 21.195312 19.714844 21.75 19.242188 Z M 34.019531 47.332031 L 15.160156 47.332031 L 15.160156 36.757812 L 34.019531 36.757812 Z M 34.609375 35.574219 L 19.855469 35.574219 C 17.683594 32.535156 17.09375 28.75 18 25.316406 L 25.851562 33.167969 C 25.96875 33.285156 26.128906 33.324219 26.285156 33.324219 C 26.445312 33.324219 26.601562 33.285156 26.71875 33.167969 L 31.730469 28.195312 L 34.925781 31.390625 C 35.164062 31.628906 35.515625 31.628906 35.753906 31.390625 L 41.871094 25.316406 C 43.054688 29.8125 41.632812 34.589844 38.121094 37.703125 C 37.253906 38.492188 36.265625 39.125 35.242188 39.597656 L 35.242188 36.207031 C 35.203125 35.851562 34.925781 35.574219 34.609375 35.574219 Z M 47.589844 48.398438 C 46.683594 49.1875 45.300781 49.105469 44.511719 48.199219 L 40.09375 43.1875 C 39.976562 43.070312 39.9375 42.914062 39.9375 42.753906 C 39.9375 42.597656 40.015625 42.4375 40.132812 42.359375 L 42.5 40.269531 C 42.617188 40.191406 42.738281 40.113281 42.894531 40.113281 C 42.894531 40.113281 42.933594 40.113281 42.933594 40.113281 C 43.09375 40.113281 43.25 40.191406 43.328125 40.308594 L 47.746094 45.320312 C 48.140625 45.753906 48.300781 46.304688 48.300781 46.898438 C 48.261719 47.488281 47.984375 48.003906 47.589844 48.398438 Z M 47.589844 48.398438 " fill-opacity="1" fill-rule="nonzero"/></g><path fill="#e2e8f0" d="M 16.738281 40.664062 C 16.738281 41.769531 17.644531 42.636719 18.710938 42.636719 L 19.027344 42.636719 C 19.460938 42.636719 19.816406 42.992188 19.816406 43.425781 C 19.816406 43.859375 19.460938 44.214844 19.027344 44.214844 L 17.328125 44.214844 C 17.015625 44.214844 16.738281 44.492188 16.738281 44.804688 C 16.738281 45.121094 17.015625 45.398438 17.328125 45.398438 L 19.027344 45.398438 C 20.132812 45.398438 21 44.53125 21 43.425781 C 21 42.320312 20.089844 41.453125 19.027344 41.453125 L 18.710938 41.453125 C 18.277344 41.453125 17.921875 41.097656 17.921875 40.664062 C 17.921875 40.230469 18.277344 39.875 18.710938 39.875 L 20.40625 39.875 C 20.722656 39.875 21 39.597656 21 39.28125 C 21 38.96875 20.722656 38.691406 20.40625 38.691406 L 18.710938 38.691406 C 17.644531 38.691406 16.738281 39.558594 16.738281 40.664062 Z M 16.738281 40.664062 " fill-opacity="1" fill-rule="nonzero"/><path fill="#e2e8f0" d="M 23.050781 45.398438 L 26.128906 45.398438 C 26.445312 45.398438 26.71875 45.121094 26.71875 44.804688 C 26.71875 44.492188 26.445312 44.214844 26.128906 44.214844 L 23.640625 44.214844 L 23.640625 42.636719 L 26.128906 42.636719 C 26.445312 42.636719 26.71875 42.359375 26.71875 42.042969 C 26.71875 41.730469 26.445312 41.453125 26.128906 41.453125 L 23.640625 41.453125 L 23.640625 39.875 L 26.128906 39.875 C 26.445312 39.875 26.71875 39.597656 26.71875 39.28125 C 26.71875 38.96875 26.445312 38.691406 26.128906 38.691406 L 23.050781 38.691406 C 22.734375 38.691406 22.457031 38.96875 22.457031 39.28125 L 22.457031 44.804688 C 22.457031 45.121094 22.734375 45.398438 23.050781 45.398438 Z M 23.050781 45.398438 " fill-opacity="1" fill-rule="nonzero"/><path fill="#e2e8f0" d="M 30.308594 45.398438 C 31.492188 45.398438 32.441406 44.453125 32.441406 43.269531 L 32.441406 40.78125 C 32.441406 39.597656 31.492188 38.652344 30.308594 38.652344 C 29.125 38.652344 28.179688 39.597656 28.179688 40.78125 L 28.179688 43.269531 C 28.179688 44.453125 29.125 45.398438 30.308594 45.398438 Z M 29.363281 40.820312 C 29.363281 40.308594 29.796875 39.875 30.308594 39.875 C 30.824219 39.875 31.257812 40.308594 31.257812 40.820312 L 31.257812 43.308594 C 31.257812 43.820312 30.824219 44.253906 30.308594 44.253906 C 29.796875 44.253906 29.363281 43.820312 29.363281 43.308594 Z M 29.363281 40.820312 " fill-opacity="1" fill-rule="nonzero"/></svg>