<svg xmlns="http://www.w3.org/2000/svg" xmlns:xlink="http://www.w3.org/1999/xlink" width="85" zoomAndPan="magnify" viewBox="0 0 63.75 63.749997" height="85" preserveAspectRatio="xMidYMid meet" version="1.0"><defs><clipPath id="48ab80a982"><path d="M 0.597656 1.050781 L 62.960938 1.050781 L 62.960938 62.453125 L 0.597656 62.453125 Z M 0.597656 1.050781 " clip-rule="nonzero"/></clipPath><clipPath id="09f6116c14"><path d="M 9.5625 1.050781 L 53.9375 1.050781 C 58.890625 1.050781 62.902344 5.0625 62.902344 10.015625 L 62.902344 53.488281 C 62.902344 58.4375 58.890625 62.453125 53.9375 62.453125 L 9.5625 62.453125 C 4.613281 62.453125 0.597656 58.4375 0.597656 53.488281 L 0.597656 10.015625 C 0.597656 5.0625 4.613281 1.050781 9.5625 1.050781 Z M 9.5625 1.050781 " clip-rule="nonzero"/></clipPath><clipPath id="72d1c56458"><path d="M 13.632812 22 L 50 22 L 50 50 L 13.632812 50 Z M 13.632812 22 " clip-rule="nonzero"/></clipPath><clipPath id="24ab216c85"><path d="M 41 13.632812 L 48 13.632812 L 48 43 L 41 43 Z M 41 13.632812 " clip-rule="nonzero"/></clipPath><clipPath id="3a72f67ec7"><path d="M 29 13.632812 L 32 13.632812 L 32 15 L 29 15 Z M 29 13.632812 " clip-rule="nonzero"/></clipPath></defs><g clip-path="url(#48ab80a982)"><g clip-path="url(#09f6116c14)"><path fill="#000319" d="M 0.597656 1.050781 L 62.960938 1.050781 L 62.960938 62.453125 L 0.597656 62.453125 Z M 0.597656 1.050781 " fill-opacity="1" fill-rule="nonzero"/></g></g><path fill="#e2e8f0" d="M 36.582031 29.335938 L 39.601562 29.335938 C 39.933594 29.335938 40.203125 29.0625 40.203125 28.730469 C 40.203125 28.398438 39.933594 28.128906 39.601562 28.128906 L 36.582031 28.128906 C 36.25 28.128906 35.976562 28.398438 35.976562 28.730469 C 35.976562 29.0625 36.25 29.335938 36.582031 29.335938 " fill-opacity="1" fill-rule="nonzero"/><g clip-path="url(#72d1c56458)"><path fill="#e2e8f0" d="M 14.84375 26.316406 C 14.84375 24.648438 16.195312 23.296875 17.859375 23.296875 C 19.527344 23.296875 20.878906 24.648438 20.878906 26.316406 L 20.878906 42.683594 C 20.113281 41.902344 19.042969 41.414062 17.859375 41.414062 C 16.679688 41.414062 15.609375 41.902344 14.84375 42.683594 Z M 49.261719 28.128906 C 48.929688 28.128906 48.660156 28.398438 48.660156 28.730469 L 48.660156 48.660156 L 17.859375 48.660156 C 16.195312 48.660156 14.84375 47.304688 14.84375 45.640625 C 14.84375 43.972656 16.195312 42.621094 17.859375 42.621094 C 19.527344 42.621094 20.878906 43.972656 20.878906 45.640625 C 20.878906 45.972656 21.152344 46.242188 21.484375 46.242188 C 21.816406 46.242188 22.089844 45.972656 22.089844 45.640625 L 22.089844 29.335938 L 23.898438 29.335938 C 24.234375 29.335938 24.503906 29.0625 24.503906 28.730469 C 24.503906 28.398438 24.234375 28.128906 23.898438 28.128906 L 22.089844 28.128906 L 22.089844 26.316406 C 22.089844 23.984375 20.191406 22.089844 17.859375 22.089844 C 15.53125 22.089844 13.632812 23.984375 13.632812 26.316406 L 13.632812 45.640625 C 13.632812 47.96875 15.53125 49.867188 17.859375 49.867188 L 49.261719 49.867188 C 49.59375 49.867188 49.867188 49.59375 49.867188 49.261719 L 49.867188 28.730469 C 49.867188 28.398438 49.59375 28.128906 49.261719 28.128906 " fill-opacity="1" fill-rule="nonzero"/></g><g clip-path="url(#24ab216c85)"><path fill="#e2e8f0" d="M 42.621094 16.652344 C 42.621094 15.652344 43.433594 14.839844 44.433594 14.839844 C 45.433594 14.839844 46.242188 15.652344 46.242188 16.652344 L 46.242188 17.257812 L 42.621094 17.257812 Z M 42.621094 19.671875 L 42.621094 18.464844 L 46.242188 18.464844 L 46.242188 19.671875 Z M 43.828125 34.769531 L 42.621094 34.769531 L 42.621094 20.878906 L 43.828125 20.878906 Z M 45.472656 37.183594 L 43.390625 37.183594 L 42.90625 35.976562 L 45.957031 35.976562 Z M 43.875 38.394531 L 44.988281 38.394531 L 44.433594 39.789062 Z M 41.453125 35.597656 L 42.417969 38.011719 C 42.421875 38.011719 42.421875 38.011719 42.421875 38.011719 L 43.871094 41.636719 C 43.960938 41.867188 44.183594 42.015625 44.433594 42.015625 C 44.679688 42.015625 44.902344 41.867188 44.992188 41.636719 L 46.441406 38.011719 C 46.441406 38.011719 46.441406 38.011719 46.445312 38.011719 L 47.410156 35.597656 C 47.433594 35.535156 47.445312 35.464844 47.445312 35.398438 C 47.445312 35.386719 47.453125 35.382812 47.453125 35.375 L 47.453125 25.109375 C 47.453125 24.773438 47.179688 24.503906 46.847656 24.503906 C 46.515625 24.503906 46.242188 24.773438 46.242188 25.109375 L 46.242188 34.769531 L 45.035156 34.769531 L 45.035156 20.878906 L 46.242188 20.878906 L 46.242188 22.691406 C 46.242188 23.023438 46.515625 23.296875 46.847656 23.296875 C 47.179688 23.296875 47.453125 23.023438 47.453125 22.691406 L 47.453125 16.652344 C 47.453125 14.988281 46.097656 13.632812 44.433594 13.632812 C 42.765625 13.632812 41.414062 14.988281 41.414062 16.652344 L 41.414062 35.375 C 41.414062 35.382812 41.417969 35.386719 41.417969 35.398438 C 41.417969 35.464844 41.429688 35.535156 41.453125 35.597656 " fill-opacity="1" fill-rule="nonzero"/></g><path fill="#e2e8f0" d="M 29.335938 26.917969 L 33.5625 26.917969 C 33.894531 26.917969 34.164062 27.191406 34.164062 27.523438 C 34.164062 27.855469 33.894531 28.128906 33.5625 28.128906 L 27.523438 28.128906 C 27.191406 28.128906 26.917969 27.855469 26.917969 27.523438 C 26.917969 27.191406 27.191406 26.917969 27.523438 26.917969 Z M 29.4375 21.75 L 30.351562 22.058594 C 30.476562 22.097656 30.609375 22.097656 30.734375 22.058594 L 31.648438 21.75 L 31.210938 25.710938 L 29.875 25.710938 Z M 30.542969 31.75 C 29.210938 31.75 28.128906 30.667969 28.128906 29.335938 L 32.957031 29.335938 C 32.957031 30.667969 31.875 31.75 30.542969 31.75 Z M 26.917969 25.53125 L 26.917969 25.824219 C 26.21875 26.074219 25.710938 26.738281 25.710938 27.523438 C 25.710938 28.308594 26.21875 28.972656 26.917969 29.222656 L 26.917969 29.335938 C 26.917969 30.9375 27.96875 32.300781 29.417969 32.777344 C 28.777344 33.421875 27.972656 33.886719 27.074219 34.109375 L 26.15625 34.339844 C 24.828125 34.671875 23.898438 35.855469 23.898438 37.226562 C 23.898438 38.871094 25.234375 40.203125 26.878906 40.203125 L 28.128906 40.203125 C 28.460938 40.203125 28.730469 39.933594 28.730469 39.601562 C 28.730469 39.269531 28.460938 38.996094 28.128906 38.996094 L 26.878906 38.996094 C 25.902344 38.996094 25.109375 38.203125 25.109375 37.226562 C 25.109375 36.414062 25.660156 35.707031 26.449219 35.511719 L 27.371094 35.28125 C 28.777344 34.929688 30 34.101562 30.859375 32.941406 C 32.710938 32.78125 34.164062 31.226562 34.164062 29.335938 L 34.164062 29.222656 C 34.867188 28.972656 35.375 28.308594 35.375 27.523438 C 35.375 26.738281 34.867188 26.074219 34.164062 25.824219 L 34.164062 25.53125 C 35.320312 24.5 35.976562 23.042969 35.976562 21.484375 C 35.976562 20.519531 35.714844 19.566406 35.21875 18.726562 C 35.054688 18.4375 34.683594 18.34375 34.394531 18.515625 C 34.105469 18.683594 34.011719 19.054688 34.179688 19.339844 C 34.566406 19.992188 34.769531 20.734375 34.769531 21.484375 C 34.769531 22.769531 34.191406 23.972656 33.183594 24.78125 C 33.039062 24.894531 32.957031 25.070312 32.957031 25.25 L 32.957031 25.710938 L 32.425781 25.710938 L 32.953125 20.945312 C 32.976562 20.742188 32.894531 20.539062 32.734375 20.410156 C 32.574219 20.28125 32.359375 20.242188 32.164062 20.308594 L 30.542969 20.847656 L 28.921875 20.308594 C 28.726562 20.242188 28.511719 20.28125 28.351562 20.410156 C 28.191406 20.539062 28.109375 20.742188 28.132812 20.945312 L 28.660156 25.710938 L 28.128906 25.710938 L 28.128906 25.25 C 28.128906 25.070312 28.042969 24.894531 27.902344 24.78125 C 26.894531 23.972656 26.316406 22.769531 26.316406 21.484375 C 26.316406 19.152344 28.210938 17.257812 30.542969 17.257812 C 31.292969 17.257812 32.035156 17.460938 32.683594 17.847656 C 32.976562 18.015625 33.34375 17.921875 33.511719 17.632812 C 33.683594 17.347656 33.589844 16.972656 33.300781 16.808594 C 32.460938 16.3125 31.507812 16.050781 30.542969 16.050781 C 27.546875 16.050781 25.109375 18.488281 25.109375 21.484375 C 25.109375 23.042969 25.761719 24.5 26.917969 25.53125 " fill-opacity="1" fill-rule="nonzero"/><path fill="#e2e8f0" d="M 23.296875 22.089844 C 23.628906 22.089844 23.898438 21.816406 23.898438 21.484375 C 23.898438 21.152344 23.628906 20.878906 23.296875 20.878906 C 22.964844 20.878906 22.691406 21.152344 22.691406 21.484375 C 22.691406 21.816406 22.964844 22.089844 23.296875 22.089844 " fill-opacity="1" fill-rule="nonzero"/><path fill="#e2e8f0" d="M 37.183594 21.484375 C 37.183594 21.816406 37.457031 22.089844 37.789062 22.089844 C 38.121094 22.089844 38.394531 21.816406 38.394531 21.484375 C 38.394531 21.152344 38.121094 20.878906 37.789062 20.878906 C 37.457031 20.878906 37.183594 21.152344 37.183594 21.484375 " fill-opacity="1" fill-rule="nonzero"/><g clip-path="url(#3a72f67ec7)"><path fill="#e2e8f0" d="M 30.542969 14.839844 C 30.875 14.839844 31.148438 14.570312 31.148438 14.238281 C 31.148438 13.90625 30.875 13.632812 30.542969 13.632812 C 30.210938 13.632812 29.9375 13.90625 29.9375 14.238281 C 29.9375 14.570312 30.210938 14.839844 30.542969 14.839844 " fill-opacity="1" fill-rule="nonzero"/></g><path fill="#e2e8f0" d="M 23.964844 18.386719 C 24.253906 18.550781 24.625 18.449219 24.789062 18.164062 C 24.957031 17.875 24.859375 17.503906 24.566406 17.335938 C 24.28125 17.171875 23.910156 17.269531 23.746094 17.558594 C 23.578125 17.847656 23.675781 18.21875 23.964844 18.386719 " fill-opacity="1" fill-rule="nonzero"/><path fill="#e2e8f0" d="M 36.519531 25.632812 C 36.804688 25.796875 37.171875 25.699219 37.339844 25.410156 C 37.507812 25.121094 37.410156 24.75 37.121094 24.585938 C 36.832031 24.417969 36.460938 24.519531 36.296875 24.804688 C 36.128906 25.09375 36.226562 25.464844 36.519531 25.632812 " fill-opacity="1" fill-rule="nonzero"/><path fill="#e2e8f0" d="M 33.863281 15.730469 C 34.152344 15.898438 34.523438 15.800781 34.691406 15.507812 C 34.855469 15.222656 34.753906 14.855469 34.46875 14.6875 C 34.179688 14.519531 33.808594 14.617188 33.640625 14.90625 C 33.476562 15.195312 33.578125 15.566406 33.863281 15.730469 " fill-opacity="1" fill-rule="nonzero"/><path fill="#e2e8f0" d="M 37.121094 18.386719 C 37.410156 18.21875 37.507812 17.847656 37.339844 17.558594 C 37.171875 17.269531 36.804688 17.171875 36.519531 17.335938 C 36.226562 17.503906 36.128906 17.875 36.296875 18.164062 C 36.460938 18.449219 36.832031 18.550781 37.121094 18.386719 " fill-opacity="1" fill-rule="nonzero"/><path fill="#e2e8f0" d="M 24.789062 24.804688 C 24.625 24.519531 24.253906 24.417969 23.964844 24.585938 C 23.675781 24.75 23.578125 25.121094 23.746094 25.410156 C 23.910156 25.699219 24.28125 25.796875 24.566406 25.632812 C 24.859375 25.464844 24.957031 25.09375 24.789062 24.804688 " fill-opacity="1" fill-rule="nonzero"/><path fill="#e2e8f0" d="M 27.222656 15.730469 C 27.507812 15.566406 27.609375 15.195312 27.441406 14.90625 C 27.277344 14.617188 26.90625 14.519531 26.617188 14.6875 C 26.328125 14.855469 26.230469 15.222656 26.394531 15.507812 C 26.5625 15.800781 26.933594 15.898438 27.222656 15.730469 " fill-opacity="1" fill-rule="nonzero"/><path fill="#e2e8f0" d="M 33.5625 45.035156 L 35.976562 45.035156 C 36.308594 45.035156 36.582031 44.765625 36.582031 44.433594 L 36.582031 43.417969 C 36.785156 43.320312 36.984375 43.207031 37.167969 43.078125 L 38.046875 43.585938 C 38.335938 43.753906 38.707031 43.652344 38.871094 43.363281 L 40.078125 41.273438 C 40.246094 40.984375 40.148438 40.617188 39.859375 40.449219 L 38.984375 39.941406 C 38.992188 39.828125 38.996094 39.714844 38.996094 39.601562 C 38.996094 39.488281 38.992188 39.375 38.984375 39.261719 L 39.859375 38.753906 C 40.148438 38.585938 40.246094 38.21875 40.078125 37.929688 L 38.871094 35.839844 C 38.707031 35.546875 38.335938 35.449219 38.046875 35.617188 L 37.167969 36.125 C 36.984375 35.996094 36.785156 35.882812 36.582031 35.785156 L 36.582031 34.769531 C 36.582031 34.4375 36.308594 34.164062 35.976562 34.164062 L 33.5625 34.164062 C 33.230469 34.164062 32.957031 34.4375 32.957031 34.769531 L 32.957031 35.785156 C 32.753906 35.882812 32.558594 35.996094 32.371094 36.125 L 31.492188 35.617188 C 31.203125 35.449219 30.832031 35.546875 30.667969 35.839844 L 29.460938 37.929688 C 29.292969 38.21875 29.390625 38.585938 29.679688 38.753906 L 30.558594 39.261719 C 30.546875 39.375 30.542969 39.488281 30.542969 39.601562 C 30.542969 39.714844 30.546875 39.828125 30.558594 39.941406 L 29.679688 40.449219 C 29.390625 40.617188 29.292969 40.984375 29.460938 41.273438 C 29.625 41.5625 29.996094 41.660156 30.285156 41.492188 L 31.511719 40.785156 C 31.734375 40.65625 31.847656 40.402344 31.804688 40.152344 C 31.765625 39.960938 31.75 39.777344 31.75 39.601562 C 31.75 39.425781 31.765625 39.242188 31.804688 39.050781 C 31.847656 38.800781 31.734375 38.542969 31.511719 38.417969 L 30.808594 38.011719 L 31.410156 36.964844 L 32.117188 37.371094 C 32.335938 37.5 32.613281 37.472656 32.808594 37.308594 C 33.089844 37.066406 33.410156 36.882812 33.765625 36.757812 C 34.003906 36.671875 34.164062 36.445312 34.164062 36.1875 L 34.164062 35.375 L 35.375 35.375 L 35.375 36.1875 C 35.375 36.445312 35.535156 36.671875 35.773438 36.757812 C 36.128906 36.882812 36.449219 37.066406 36.730469 37.308594 C 36.925781 37.472656 37.203125 37.5 37.421875 37.371094 L 38.128906 36.964844 L 38.734375 38.011719 L 38.027344 38.417969 C 37.808594 38.542969 37.691406 38.800781 37.734375 39.050781 C 37.773438 39.242188 37.789062 39.425781 37.789062 39.601562 C 37.789062 39.777344 37.773438 39.960938 37.734375 40.152344 C 37.691406 40.402344 37.808594 40.65625 38.027344 40.785156 L 38.734375 41.191406 L 38.128906 42.238281 L 37.421875 41.832031 C 37.203125 41.703125 36.925781 41.730469 36.730469 41.894531 C 36.449219 42.132812 36.128906 42.320312 35.773438 42.445312 C 35.535156 42.53125 35.375 42.757812 35.375 43.015625 L 35.375 43.828125 L 34.164062 43.828125 L 34.164062 43.015625 C 34.164062 42.757812 34.003906 42.53125 33.765625 42.445312 C 33.410156 42.320312 33.089844 42.132812 32.808594 41.894531 C 32.613281 41.730469 32.335938 41.703125 32.117188 41.832031 L 30.886719 42.539062 C 30.597656 42.707031 30.5 43.074219 30.667969 43.363281 C 30.832031 43.652344 31.203125 43.753906 31.492188 43.585938 L 32.371094 43.078125 C 32.558594 43.207031 32.753906 43.320312 32.957031 43.417969 L 32.957031 44.433594 C 32.957031 44.765625 33.230469 45.035156 33.5625 45.035156 " fill-opacity="1" fill-rule="nonzero"/><path fill="#e2e8f0" d="M 34.164062 39.601562 C 34.164062 39.269531 34.4375 38.996094 34.769531 38.996094 C 35.101562 38.996094 35.375 39.269531 35.375 39.601562 C 35.375 39.933594 35.101562 40.203125 34.769531 40.203125 C 34.4375 40.203125 34.164062 39.933594 34.164062 39.601562 Z M 36.582031 39.601562 C 36.582031 38.601562 35.769531 37.789062 34.769531 37.789062 C 33.769531 37.789062 32.957031 38.601562 32.957031 39.601562 C 32.957031 40.601562 33.769531 41.414062 34.769531 41.414062 C 35.769531 41.414062 36.582031 40.601562 36.582031 39.601562 " fill-opacity="1" fill-rule="nonzero"/><path fill="#e2e8f0" d="M 35.375 47.453125 L 42.621094 47.453125 C 43.953125 47.453125 45.035156 46.367188 45.035156 45.035156 L 45.035156 43.828125 C 45.035156 43.496094 44.765625 43.222656 44.433594 43.222656 C 44.097656 43.222656 43.828125 43.496094 43.828125 43.828125 L 43.828125 45.035156 C 43.828125 45.699219 43.285156 46.242188 42.621094 46.242188 L 35.375 46.242188 C 35.042969 46.242188 34.769531 46.515625 34.769531 46.847656 C 34.769531 47.179688 35.042969 47.453125 35.375 47.453125 " fill-opacity="1" fill-rule="nonzero"/><path fill="#e2e8f0" d="M 26.917969 45.035156 C 26.917969 45.367188 26.648438 45.640625 26.316406 45.640625 C 25.984375 45.640625 25.710938 45.367188 25.710938 45.035156 C 25.710938 44.703125 25.984375 44.433594 26.316406 44.433594 C 26.648438 44.433594 26.917969 44.703125 26.917969 45.035156 Z M 24.503906 45.035156 C 24.503906 46.035156 25.316406 46.847656 26.316406 46.847656 C 27.316406 46.847656 28.128906 46.035156 28.128906 45.035156 C 28.128906 44.035156 27.316406 43.222656 26.316406 43.222656 C 25.316406 43.222656 24.503906 44.035156 24.503906 45.035156 " fill-opacity="1" fill-rule="nonzero"/></svg>