<svg xmlns="http://www.w3.org/2000/svg" xmlns:xlink="http://www.w3.org/1999/xlink" width="85" zoomAndPan="magnify" viewBox="0 0 63.75 63.749997" height="85" preserveAspectRatio="xMidYMid meet" version="1.0"><defs><clipPath id="4bd8e9aa51"><path d="M 0.597656 1.050781 L 62.960938 1.050781 L 62.960938 62.453125 L 0.597656 62.453125 Z M 0.597656 1.050781 " clip-rule="nonzero"/></clipPath><clipPath id="c7c11ef4fb"><path d="M 9.5625 1.050781 L 53.9375 1.050781 C 58.890625 1.050781 62.902344 5.0625 62.902344 10.015625 L 62.902344 53.488281 C 62.902344 58.4375 58.890625 62.453125 53.9375 62.453125 L 9.5625 62.453125 C 4.613281 62.453125 0.597656 58.4375 0.597656 53.488281 L 0.597656 10.015625 C 0.597656 5.0625 4.613281 1.050781 9.5625 1.050781 Z M 9.5625 1.050781 " clip-rule="nonzero"/></clipPath><clipPath id="412c265c06"><path d="M 13.886719 15.480469 L 49.746094 15.480469 L 49.746094 48.351562 L 13.886719 48.351562 Z M 13.886719 15.480469 " clip-rule="nonzero"/></clipPath></defs><g clip-path="url(#4bd8e9aa51)"><g clip-path="url(#c7c11ef4fb)"><path fill="#000319" d="M 0.597656 1.050781 L 62.960938 1.050781 L 62.960938 62.453125 L 0.597656 62.453125 Z M 0.597656 1.050781 " fill-opacity="1" fill-rule="nonzero"/></g></g><g clip-path="url(#412c265c06)"><path fill="#e2e8f0" d="M 13.886719 45.902344 L 13.886719 17.578125 C 13.886719 17.023438 14.109375 16.488281 14.503906 16.09375 C 14.898438 15.699219 15.433594 15.476562 15.988281 15.476562 L 47.503906 15.476562 C 48.0625 15.476562 48.597656 15.699219 48.992188 16.09375 C 49.382812 16.488281 49.605469 17.023438 49.605469 17.578125 L 49.605469 45.902344 C 49.605469 46.460938 49.382812 46.996094 48.988281 47.390625 C 48.59375 47.785156 48.058594 48.007812 47.503906 48.007812 L 15.992188 48.007812 C 15.433594 48.007812 14.898438 47.785156 14.503906 47.390625 C 14.109375 46.996094 13.886719 46.460938 13.886719 45.902344 Z M 48.59375 21.972656 L 48.59375 17.578125 C 48.59375 17.292969 48.480469 17.015625 48.273438 16.808594 C 48.070312 16.605469 47.792969 16.492188 47.503906 16.488281 L 15.988281 16.488281 C 15.699219 16.492188 15.421875 16.605469 15.21875 16.808594 C 15.015625 17.015625 14.898438 17.292969 14.898438 17.578125 L 14.898438 21.972656 Z M 42.574219 18.253906 C 43.113281 18.253906 43.550781 18.691406 43.550781 19.230469 C 43.550781 19.769531 43.113281 20.207031 42.574219 20.207031 C 42.035156 20.207031 41.597656 19.769531 41.597656 19.230469 C 41.597656 18.691406 42.035156 18.253906 42.574219 18.253906 Z M 39.710938 18.253906 C 40.25 18.253906 40.6875 18.691406 40.6875 19.230469 C 40.6875 19.769531 40.25 20.207031 39.710938 20.207031 C 39.171875 20.207031 38.734375 19.769531 38.734375 19.230469 C 38.734375 18.691406 39.171875 18.253906 39.710938 18.253906 Z M 45.4375 18.253906 C 45.976562 18.253906 46.414062 18.691406 46.414062 19.230469 C 46.414062 19.769531 45.976562 20.207031 45.4375 20.207031 C 44.902344 20.207031 44.464844 19.769531 44.464844 19.230469 C 44.464844 18.691406 44.902344 18.253906 45.4375 18.253906 Z M 14.898438 22.984375 L 14.898438 45.902344 C 14.898438 46.191406 15.015625 46.46875 15.21875 46.675781 C 15.421875 46.878906 15.703125 46.996094 15.992188 46.996094 L 47.503906 46.996094 C 47.792969 46.996094 48.070312 46.878906 48.273438 46.675781 C 48.480469 46.46875 48.59375 46.191406 48.59375 45.902344 L 48.59375 22.984375 Z M 28.832031 34.550781 C 27.753906 33.472656 26.9375 32.65625 26.9375 32.65625 C 25.457031 33.136719 23.769531 32.789062 22.59375 31.613281 C 21.460938 30.480469 21.097656 28.871094 21.503906 27.429688 C 21.550781 27.253906 21.6875 27.121094 21.863281 27.078125 C 22.035156 27.03125 22.21875 27.082031 22.347656 27.207031 L 24.226562 29.089844 C 24.226562 29.089844 25.972656 28.949219 25.972656 28.949219 L 26.109375 27.203125 L 24.230469 25.324219 C 24.105469 25.195312 24.054688 25.011719 24.097656 24.835938 C 24.144531 24.664062 24.277344 24.527344 24.453125 24.476562 C 25.890625 24.070312 27.503906 24.4375 28.636719 25.570312 C 29.8125 26.746094 30.160156 28.4375 29.679688 29.914062 C 29.679688 29.914062 30.933594 31.167969 32.386719 32.621094 L 36.445312 28.5625 L 36.574219 27.316406 C 36.589844 27.167969 36.667969 27.035156 36.792969 26.949219 L 39.4375 25.15625 C 39.640625 25.019531 39.910156 25.046875 40.082031 25.21875 L 41.460938 26.597656 C 41.632812 26.769531 41.660156 27.039062 41.523438 27.238281 L 39.730469 29.886719 C 39.644531 30.011719 39.511719 30.089844 39.359375 30.105469 L 38.117188 30.234375 L 34.058594 34.292969 C 35.511719 35.746094 36.761719 37 36.761719 37 C 38.242188 36.519531 39.933594 36.867188 41.109375 38.042969 C 42.242188 39.175781 42.605469 40.789062 42.199219 42.226562 C 42.152344 42.398438 42.015625 42.535156 41.839844 42.578125 C 41.667969 42.625 41.480469 42.574219 41.355469 42.449219 L 39.476562 40.566406 L 37.726562 40.703125 L 37.589844 42.453125 L 39.472656 44.332031 C 39.597656 44.457031 39.648438 44.644531 39.601562 44.816406 C 39.558594 44.992188 39.425781 45.128906 39.25 45.175781 C 37.808594 45.582031 36.199219 45.21875 35.066406 44.085938 C 33.890625 42.910156 33.542969 41.222656 34.023438 39.742188 L 32.128906 37.847656 L 26.226562 43.75 C 25.320312 44.652344 23.839844 44.652344 22.929688 43.75 C 22.023438 42.839844 22.023438 41.355469 22.929688 40.453125 Z M 37.21875 39.730469 L 39.628906 39.539062 C 39.777344 39.527344 39.921875 39.582031 40.027344 39.6875 C 40.027344 39.6875 41.347656 41.007812 41.347656 41.007812 C 41.335938 40.191406 41.015625 39.378906 40.394531 38.757812 C 39.429688 37.796875 38.015625 37.558594 36.828125 38.054688 C 36.640625 38.132812 36.421875 38.089844 36.277344 37.945312 L 28.734375 30.402344 C 28.589844 30.257812 28.546875 30.039062 28.625 29.847656 C 29.117188 28.664062 28.882812 27.25 27.921875 26.285156 C 27.296875 25.664062 26.484375 25.34375 25.667969 25.332031 L 26.992188 26.652344 C 27.097656 26.757812 27.152344 26.902344 27.140625 27.050781 L 26.949219 29.460938 C 26.929688 29.707031 26.730469 29.90625 26.484375 29.925781 L 24.074219 30.117188 C 23.925781 30.128906 23.78125 30.074219 23.675781 29.96875 C 23.675781 29.96875 22.355469 28.648438 22.355469 28.644531 C 22.367188 29.460938 22.6875 30.273438 23.308594 30.898438 C 24.273438 31.863281 25.6875 32.09375 26.871094 31.601562 C 27.0625 31.523438 27.28125 31.566406 27.425781 31.710938 L 34.96875 39.253906 C 35.113281 39.398438 35.15625 39.617188 35.078125 39.804688 C 34.582031 40.992188 34.816406 42.40625 35.78125 43.371094 C 36.402344 43.992188 37.214844 44.3125 38.03125 44.324219 L 36.710938 43.003906 C 36.605469 42.898438 36.550781 42.753906 36.5625 42.605469 L 36.753906 40.195312 C 36.773438 39.945312 36.96875 39.75 37.21875 39.730469 Z M 33.101562 33.335938 L 33.339844 33.578125 L 37.53125 29.390625 C 37.613281 29.308594 37.71875 29.257812 37.835938 29.246094 L 39.023438 29.125 L 40.449219 27.019531 L 39.660156 26.230469 L 37.554688 27.65625 L 37.433594 28.84375 C 37.421875 28.960938 37.371094 29.066406 37.289062 29.148438 Z M 31.414062 37.132812 L 29.546875 35.265625 L 23.648438 41.167969 C 23.132812 41.679688 23.132812 42.519531 23.648438 43.03125 C 24.160156 43.542969 25 43.542969 25.511719 43.03125 Z M 31.414062 37.132812 " fill-opacity="1" fill-rule="evenodd"/></g></svg>