<svg xmlns="http://www.w3.org/2000/svg" xmlns:xlink="http://www.w3.org/1999/xlink" width="85" zoomAndPan="magnify" viewBox="0 0 63.75 63.749997" height="85" preserveAspectRatio="xMidYMid meet" version="1.0"><defs><clipPath id="fb36114f52"><path d="M 0.597656 1.050781 L 62.960938 1.050781 L 62.960938 62.453125 L 0.597656 62.453125 Z M 0.597656 1.050781 " clip-rule="nonzero"/></clipPath><clipPath id="701e622886"><path d="M 9.5625 1.050781 L 53.9375 1.050781 C 58.890625 1.050781 62.902344 5.0625 62.902344 10.015625 L 62.902344 53.488281 C 62.902344 58.4375 58.890625 62.453125 53.9375 62.453125 L 9.5625 62.453125 C 4.613281 62.453125 0.597656 58.4375 0.597656 53.488281 L 0.597656 10.015625 C 0.597656 5.0625 4.613281 1.050781 9.5625 1.050781 Z M 9.5625 1.050781 " clip-rule="nonzero"/></clipPath><clipPath id="ad95c990f5"><path d="M 13.847656 13.914062 L 49.707031 13.914062 L 49.707031 49.773438 L 13.847656 49.773438 Z M 13.847656 13.914062 " clip-rule="nonzero"/></clipPath></defs><g clip-path="url(#fb36114f52)"><g clip-path="url(#701e622886)"><path fill="#5e17eb" d="M 0.597656 1.050781 L 62.960938 1.050781 L 62.960938 62.453125 L 0.597656 62.453125 Z M 0.597656 1.050781 " fill-opacity="1" fill-rule="nonzero"/></g></g><g clip-path="url(#ad95c990f5)"><path fill="#e2e8f0" d="M 31.746094 13.925781 C 21.875 13.925781 13.847656 21.921875 13.847656 31.746094 C 13.847656 41.570312 21.875 49.5625 31.746094 49.5625 C 41.617188 49.5625 49.648438 41.570312 49.648438 31.746094 C 49.648438 21.921875 41.617188 13.925781 31.746094 13.925781 M 31.746094 16.15625 C 34.90625 16.15625 37.847656 17.097656 40.3125 18.710938 C 39.453125 19.183594 38.660156 20.183594 38.660156 22.300781 C 38.660156 23.429688 39.433594 24.738281 40.324219 26.25 C 41.398438 28.070312 42.726562 30.328125 42.394531 31.960938 C 42.027344 33.042969 41.09375 35.496094 40.085938 38.113281 L 35.460938 24.882812 C 35.554688 24.855469 35.660156 24.839844 35.75 24.8125 C 36.335938 24.617188 36.652344 23.988281 36.457031 23.40625 C 36.257812 22.820312 35.628906 22.511719 35.039062 22.699219 C 34.085938 23.015625 32.363281 23.011719 31.324219 23.007812 L 30.703125 23.007812 C 29.675781 23.011719 27.941406 23.015625 26.988281 22.699219 C 26.410156 22.503906 25.773438 22.820312 25.578125 23.40625 C 25.378906 23.988281 25.699219 24.617188 26.285156 24.8125 C 26.757812 24.96875 27.3125 25.054688 27.882812 25.117188 L 30.632812 32.238281 L 28.03125 38.773438 L 23.585938 24.929688 C 23.75 24.890625 23.921875 24.863281 24.074219 24.8125 C 24.660156 24.617188 24.976562 23.988281 24.78125 23.40625 C 24.582031 22.820312 23.953125 22.503906 23.367188 22.699219 C 22.414062 23.015625 20.6875 23.007812 19.648438 23.007812 L 19.34375 23.007812 C 19.140625 23.007812 18.976562 22.992188 18.804688 22.980469 C 21.628906 18.863281 26.375 16.15625 31.746094 16.15625 M 16.082031 31.746094 C 16.082031 29.996094 16.386719 28.316406 16.925781 26.742188 L 23.789062 45.152344 C 19.1875 42.433594 16.082031 37.449219 16.082031 31.746094 M 27.292969 46.6875 L 31.820312 35.308594 L 36.214844 46.683594 C 34.796875 47.101562 33.300781 47.335938 31.746094 47.335938 C 30.199219 47.335938 28.703125 47.101562 27.292969 46.6875 M 39.753906 45.117188 C 41.203125 41.417969 43.703125 35.011719 44.449219 32.84375 L 44.480469 32.851562 C 44.511719 32.765625 44.542969 32.648438 44.566406 32.511719 C 44.820312 31.8125 45.035156 31.171875 45.207031 30.632812 C 45.761719 28.894531 46.113281 27.363281 46.292969 26.011719 C 47.007812 27.789062 47.410156 29.71875 47.410156 31.746094 C 47.410156 37.425781 44.332031 42.394531 39.753906 45.117188 " fill-opacity="1" fill-rule="nonzero"/></g></svg>